<?xml version="1.0" encoding="UTF-8"?>
<svg version="1.1" xmlns="http://www.w3.org/2000/svg" width="512" height="512">
<path d="M0 0 C1.55775146 0.24943359 1.55775146 0.24943359 3.14697266 0.50390625 C27.42208407 4.48403686 56.76248302 10.6160082 73.26344204 30.52433681 C78.77041211 38.55477596 77.69356695 47.8396831 77.63110352 57.16235352 C77.63624656 59.11127371 77.64353073 61.06018924 77.65278625 63.00909424 C77.67125807 68.28389976 77.65838867 73.55819806 77.63869596 78.8329823 C77.6222757 84.36123036 77.63112695 89.88944715 77.63621521 95.41770935 C77.640732 104.69904658 77.62489098 113.98018201 77.59692383 123.26147461 C77.56486448 133.9833186 77.56489275 144.70479886 77.5821386 155.4266687 C77.59801544 165.75356187 77.59126324 176.08032203 77.57420158 186.4072094 C77.56733916 190.79659516 77.56835524 195.18587403 77.57574654 199.57525826 C77.58342127 204.74563046 77.57124422 209.91558986 77.54389763 215.08589172 C77.53702558 216.98050652 77.53690314 218.87515995 77.54411316 220.76977348 C77.55283798 223.36154469 77.53680146 225.95205067 77.5146637 228.54371643 C77.52290446 229.28857333 77.53114523 230.03343023 77.53963572 230.80085856 C77.42944308 237.81849482 74.65305181 243.88552371 69.75 248.9375 C45.92621387 271.15274582 0.44845025 278.83803724 -31 278 C-31.00386719 278.86044922 -31.00386719 278.86044922 -31.0078125 279.73828125 C-32.00882868 301.72727007 -43.74459888 324.90006083 -57 342 C-57.68320312 342.90363281 -58.36640625 343.80726563 -59.0703125 344.73828125 C-81.13770987 372.87217716 -112.21389837 392.00640016 -147 400 C-147.67337402 400.16371094 -148.34674805 400.32742188 -149.04052734 400.49609375 C-169.44142244 405.31152083 -193.68166207 405.05718553 -214 400 C-214.69125977 399.83371094 -215.38251953 399.66742188 -216.09472656 399.49609375 C-232.09860523 395.53727814 -247.05579056 388.74930789 -261 380 C-261.83660156 380.8971875 -262.67320312 381.794375 -263.53515625 382.71875 C-271.7144888 391.48784108 -279.90892323 400.24260476 -288.11328125 408.98828125 C-289.98237412 410.98120636 -291.85069748 412.97484973 -293.71875 414.96875 C-300.80856523 422.53562994 -307.90843395 430.09290723 -315.01708984 437.64208984 C-321.40191353 444.42392953 -327.77274173 451.21882747 -334.14111328 458.01611328 C-336.63520178 460.67791563 -339.13001974 463.33903353 -341.625 466 C-342.86870616 467.32661991 -344.11219798 468.65344079 -345.35546875 469.98046875 C-348.58784288 473.43014534 -351.82410592 476.8760556 -355.06640625 480.31640625 C-355.73542969 481.02732422 -356.40445313 481.73824219 -357.09375 482.47070312 C-358.36202272 483.8182429 -359.63146426 485.16468404 -360.90234375 486.50976562 C-363.74742799 489.53503854 -366.5231386 492.58929226 -369.19921875 495.765625 C-375.03883379 502.63468103 -382.79559332 508.15752735 -391.94580078 509.22753906 C-404.49364204 510.14630801 -414.07149975 508.16150728 -423.9609375 499.984375 C-431.88177463 492.27597411 -435.26902849 483.5202766 -435.4375 472.625 C-435.34819459 461.2722027 -431.6967401 453.3707927 -424 445 C-422.06347697 443.17602039 -420.07767836 441.45016326 -418.03515625 439.74609375 C-415.91067708 437.92336402 -413.95974189 435.99809301 -412 434 C-409.44009866 431.40017817 -406.8322046 428.93731602 -404.0625 426.5625 C-401.07198284 423.99334729 -398.26883316 421.30682744 -395.5 418.5 C-392.11758601 415.0711721 -388.61929558 411.87951482 -384.96484375 408.74609375 C-382.18438168 406.27518611 -379.60881782 403.6183306 -377 400.96875 C-374.43694772 398.44574541 -371.72654176 396.12437183 -369 393.78125 C-366.91662922 391.9257479 -364.95718793 389.98776899 -363 388 C-359.79970478 384.74970017 -356.45775424 381.75275755 -353 378.78125 C-350.91662922 376.9257479 -348.95718793 374.98776899 -347 373 C-343.79970478 369.74970017 -340.45775424 366.75275755 -337 363.78125 C-334.91662922 361.9257479 -332.95718793 359.98776899 -331 358 C-328.41990785 355.37959391 -325.78896393 352.89676588 -323 350.5 C-318.78416663 346.87222983 -314.89546327 342.96544165 -311 339 C-309.33452169 337.33214583 -307.66810655 335.66522554 -306 334 C-306.4846875 333.28199219 -306.969375 332.56398438 -307.46875 331.82421875 C-315.3496767 319.65424926 -320.93611023 306.57429463 -324.875 292.625 C-325.06602295 291.94928955 -325.2570459 291.2735791 -325.45385742 290.57739258 C-328.57322462 278.7662376 -329.44434785 266.91109509 -329.4375 254.75 C-329.43790283 254.01044067 -329.43830566 253.27088135 -329.4387207 252.50891113 C-329.31450804 212.62165534 -313.81856924 175.45442225 -286 147 C-285.13890625 146.07703125 -284.2778125 145.1540625 -283.390625 144.203125 C-261.06890235 120.82475276 -229.98127564 106.61985867 -198 103 C-196.42614819 102.97329801 -194.85188314 102.96560073 -193.27783203 102.97485352 C-192.47459503 102.97848404 -191.67135803 102.98211456 -190.84378052 102.9858551 C-189.93110916 102.99285683 -189.93110916 102.99285683 -189 103 C-189.01110306 102.22040924 -189.02220612 101.44081848 -189.03364563 100.63760376 C-189.13426382 93.25326992 -189.21017405 85.86927331 -189.25906086 78.48443031 C-189.28504016 74.68870171 -189.32022007 70.89354442 -189.37719727 67.09814453 C-189.43194008 63.4281804 -189.46150804 59.75876211 -189.47438622 56.08842087 C-189.48355116 54.69547316 -189.50144661 53.30255183 -189.52865028 51.90983963 C-189.72094639 41.64722875 -188.32230926 34.44882609 -181.88671875 26.3359375 C-163.05815308 9.5474118 -136.18478773 3.93594116 -112 0 C-110.5459375 -0.2477417 -110.5459375 -0.2477417 -109.0625 -0.50048828 C-74.17675215 -6.16825007 -34.83362007 -5.90932676 0 0 Z M-166.4140625 40.8984375 C-168.26510112 42.89918946 -168.26510112 42.89918946 -167.94140625 45.5390625 C-165.29535899 52.4561155 -158.1034475 55.7540263 -151.6875 58.625 C-138.96279884 64.0192478 -125.64002793 66.8643946 -112.0625 69.1875 C-111.15951172 69.3424292 -110.25652344 69.4973584 -109.32617188 69.65698242 C-91.74410077 72.482233 -74.28777677 73.37689924 -56.5 73.3125 C-55.45029022 73.31067719 -54.40058044 73.30885437 -53.31906128 73.30697632 C-36.71725541 73.25857915 -20.41620665 72.6913521 -4 70 C-2.37698975 69.73461426 -2.37698975 69.73461426 -0.72119141 69.46386719 C30.71875798 64.55540142 30.71875798 64.55540142 56 47 C56.64858619 44.39890579 56.64858619 44.39890579 55 42 C13.69726162 0.12678181 -123.43199738 7.09700764 -166.4140625 40.8984375 Z M-168 74 C-168.09913574 78.75050819 -168.17159264 83.50040976 -168.21972656 88.25170898 C-168.23979892 89.86672458 -168.2670633 91.48166789 -168.30175781 93.09643555 C-168.35047215 95.42254501 -168.37301154 97.74769093 -168.390625 100.07421875 C-168.41127014 100.79212082 -168.43191528 101.51002289 -168.45318604 102.24967957 C-168.45536044 107.14603649 -167.44665303 109.54934295 -164 113 C-127.83955156 141.5219041 -58.24041928 137.89589742 -16 133 C21.47262911 128.72450042 21.47262911 128.72450042 54 111 C56.46105545 107.30841682 56.25575793 104.53376446 56.1953125 100.26953125 C56.1924826 99.51911057 56.18965271 98.76868988 56.18673706 97.99552917 C56.17555062 95.60102325 56.15044928 93.20689269 56.125 90.8125 C56.11496819 89.18815645 56.10584269 87.56380703 56.09765625 85.93945312 C56.07561637 81.959491 56.0410974 77.97980912 56 74 C51.77362907 75.38054848 47.76094113 76.96936533 43.6875 78.75 C12.92961568 91.48408038 -22.70965891 93.42160891 -55.5625 93.3125 C-56.70475037 93.31067719 -57.84700073 93.30885437 -59.02386475 93.30697632 C-76.21110515 93.26085402 -93.00842813 92.77636491 -110 90 C-111.61503418 89.75056641 -111.61503418 89.75056641 -113.26269531 89.49609375 C-131.33074842 86.64240885 -149.62937378 82.39385612 -166 74 C-166.66 74 -167.32 74 -168 74 Z M-262 153 C-262.86882812 153.72960937 -263.73765625 154.45921875 -264.6328125 155.2109375 C-290.49953458 177.75532831 -305.17340791 209.24870938 -307.58789062 243.34692383 C-309.64070571 277.73466816 -299.75898579 311.75659585 -277 338 C-276.31421875 338.81855469 -275.6284375 339.63710938 -274.921875 340.48046875 C-256.55579588 361.78644183 -231.17352283 374.16997617 -204 380 C-202.86820312 380.24621094 -201.73640625 380.49242187 -200.5703125 380.74609375 C-167.11454693 386.67651674 -133.64480162 378.43271182 -105.5703125 359.828125 C-79.54132779 341.31510852 -61.47064647 315.85065705 -53 285 C-52.67 283.02 -52.34 281.04 -52 279 C-58.27 278.67 -64.54 278.34 -71 278 C-71.99 280.64 -72.98 283.28 -74 286 C-81.01457043 304.16843557 -89.01244396 319.29326025 -103 333 C-104.17755859 334.15822266 -104.17755859 334.15822266 -105.37890625 335.33984375 C-125.9821734 354.54253102 -154.68520989 363.15071636 -182.46875 362.28125 C-213.9179042 360.64327322 -241.53920165 347.76643606 -263.125 324.75 C-272.88751298 313.41288816 -279.47430675 299.68449874 -283.75 285.4375 C-283.94875732 284.77782227 -284.14751465 284.11814453 -284.35229492 283.43847656 C-290.1047624 263.19018556 -290.63717336 240.06335083 -284 220 C-283.43925781 218.28876953 -283.43925781 218.28876953 -282.8671875 216.54296875 C-272.86715601 188.62897357 -252.54867743 166.1735536 -226.13867188 152.99316406 C-214.26642997 147.47989008 -201.86399573 144.96230443 -189 143 C-189 136.73 -189 130.46 -189 124 C-214.74321107 124 -242.59654692 136.70570558 -262 153 Z M-168 135 C-168.1491107 139.71380981 -168.25756634 144.42622683 -168.32958984 149.1418457 C-168.35963274 150.74332613 -168.40048117 152.34464379 -168.45263672 153.94555664 C-169.19112936 164.21162447 -169.19112936 164.21162447 -165.43359375 173.33203125 C-163.81148413 174.82501454 -163.81148413 174.82501454 -162 176 C-161.14873535 176.58358276 -161.14873535 176.58358276 -160.28027344 177.17895508 C-158.45783189 178.29068467 -156.62064722 179.22030152 -154.6875 180.125 C-153.98584717 180.45991455 -153.28419434 180.7948291 -152.5612793 181.13989258 C-140.40614922 186.74880817 -127.88909532 189.36066915 -114.75 191.6875 C-113.60958252 191.89012451 -112.46916504 192.09274902 -111.29418945 192.30151367 C-93.06741499 195.35139698 -74.8987722 196.38294666 -56.4375 196.3125 C-55.43730835 196.31067719 -54.4371167 196.30885437 -53.40661621 196.30697632 C-37.10454661 196.25718985 -21.12635972 195.57722658 -5 193 C-3.88270508 192.82307617 -2.76541016 192.64615234 -1.61425781 192.46386719 C30.36623455 187.82793723 30.36623455 187.82793723 56 170 C56.53132745 166.96248287 56.71262315 164.76304328 56.5859375 161.7578125 C56.57744781 160.98944061 56.56895813 160.22106873 56.56021118 159.42941284 C56.52682139 156.99313645 56.45158362 154.56026265 56.375 152.125 C56.34488111 150.4661939 56.31750866 148.80733551 56.29296875 147.1484375 C56.22707938 143.09766222 56.1236702 139.04940639 56 135 C54.23462891 135.76183594 54.23462891 135.76183594 52.43359375 136.5390625 C-8.08411902 162.06082987 -95.28266452 164.63204742 -156.625 139.75 C-158.75442291 138.84365524 -160.88013855 137.92848813 -163 137 C-164.66515881 136.32957599 -166.33159164 135.66229583 -168 135 Z M-242.59765625 189.51171875 C-261.06647052 208.64120606 -268.62159092 231.62303604 -268.2734375 257.95703125 C-267.67672336 276.71217016 -260.97315135 294.56046916 -249 309 C-248.31164062 309.85078125 -247.62328125 310.7015625 -246.9140625 311.578125 C-231.70758933 329.47455191 -209.21513346 339.86072149 -186 342 C-162.72000447 343.37224379 -139.10099512 337.73565887 -121.25170898 321.9934082 C-118.76948292 319.72271568 -116.37912857 317.37912857 -114 315 C-113.33097656 314.33097656 -112.66195312 313.66195312 -111.97265625 312.97265625 C-104.32810884 304.77340245 -93 288.97546315 -93 277 C-93.95962646 276.8548999 -94.91925293 276.7097998 -95.90795898 276.56030273 C-167.05693665 265.70171626 -167.05693665 265.70171626 -183.4375 244.875 C-187.22645601 239.67193221 -188.25130514 235.25079415 -188.31884766 228.82299805 C-188.32889328 228.12001083 -188.3389389 227.41702362 -188.34928894 226.69273376 C-188.38003808 224.38240331 -188.39713272 222.07218829 -188.4140625 219.76171875 C-188.43278084 218.15459709 -188.45235475 216.54748519 -188.4727478 214.94038391 C-188.52400481 210.72038535 -188.56366484 206.50035495 -188.60089111 202.2802124 C-188.64097117 197.96993169 -188.69204523 193.6597827 -188.7421875 189.34960938 C-188.8388706 180.89982967 -188.92329962 172.44998461 -189 164 C-208.85506057 164 -228.61248739 176.38787309 -242.59765625 189.51171875 Z M-168 197 C-168.17367998 201.87449089 -168.30035478 206.74716397 -168.38452148 211.62402344 C-168.4196197 213.28091823 -168.46731347 214.9375978 -168.52807617 216.59375 C-169.19664956 225.80761521 -169.19664956 225.80761521 -166.60400391 234.34838867 C-164.80658162 235.93445059 -163.15728779 236.9696035 -161 238 C-160.0821875 238.56847656 -159.164375 239.13695312 -158.21875 239.72265625 C-103.97450916 266.45509103 -24.82364141 264.58890393 31.63574219 246.13867188 C40.83055803 242.86240031 49.02795828 238.97204172 56 232 C56.17510386 229.34708243 56.23155483 226.80013826 56.1953125 224.1484375 C56.1924826 223.37440582 56.18965271 222.60037415 56.18673706 221.80288696 C56.17552754 219.32676843 56.15042203 216.8510095 56.125 214.375 C56.11497118 212.69792188 56.10584516 211.02083811 56.09765625 209.34375 C56.07558574 205.22902777 56.04105102 201.11457489 56 197 C52.63026974 198.10668847 49.29176996 199.23983356 45.99609375 200.55078125 C13.655372 213.14460934 -20.54673072 216.23124066 -55 216.25 C-56.11293427 216.25067474 -57.22586853 216.25134949 -58.37252808 216.25204468 C-93.49988423 216.21825653 -132.11151822 213.92829212 -164.1015625 197.8828125 C-165.95330767 196.85944687 -165.95330767 196.85944687 -168 197 Z M-299.5625 358 C-300.17802734 358.57234375 -300.79355469 359.1446875 -301.42773438 359.734375 C-302.95387825 361.15404372 -304.47720091 362.57674411 -306 364 C-301.30233025 369.66129431 -296.25276628 374.85228904 -291 380 C-285.74018996 375.891746 -281.8319832 371.44524098 -278 366 C-280.30847944 363.66265901 -282.62243341 361.33081534 -284.9375 359 C-285.59685547 358.33226562 -286.25621094 357.66453125 -286.93554688 356.9765625 C-287.56396484 356.34492188 -288.19238281 355.71328125 -288.83984375 355.0625 C-289.71177368 354.18271484 -289.71177368 354.18271484 -290.60131836 353.28515625 C-293.98231299 350.17858342 -296.98211964 355.58548181 -299.5625 358 Z M-326.09765625 382.71875 C-326.72542969 383.31300781 -327.35320312 383.90726562 -328 384.51953125 C-328.680625 385.17308594 -329.36125 385.82664062 -330.0625 386.5 C-331.522113 387.88544029 -332.98174916 389.27085617 -334.44140625 390.65625 C-335.19566895 391.37554687 -335.94993164 392.09484375 -336.72705078 392.8359375 C-340.30268897 396.24028303 -343.90228103 399.61902613 -347.5 403 C-348.92586248 404.34236163 -350.35164373 405.68480957 -351.77734375 407.02734375 C-357.8483192 412.74112092 -363.9322099 418.44110915 -370.01611328 424.14111328 C-372.00973707 426.00912356 -374.00299002 427.8775286 -375.99609375 429.74609375 C-376.65722168 430.36589111 -377.31834961 430.98568848 -377.99951172 431.62426758 C-379.32812503 432.87002497 -380.65657682 434.11595466 -381.98486328 435.36206055 C-385.40099055 438.56630569 -388.82058423 441.76672239 -392.24609375 444.9609375 C-405.87376891 455.59314033 -405.87376891 455.59314033 -414.203125 469.171875 C-414.30087445 474.54809462 -414.15748194 478.42709513 -411 483 C-407.05509637 486.64903586 -403.97598978 488.14042342 -398.625 488.25 C-397.87476563 488.27578125 -397.12453125 488.3015625 -396.3515625 488.328125 C-390.2376367 487.47501907 -386.23794356 482.51406072 -382.125 478.3125 C-381.19083252 477.36866455 -381.19083252 477.36866455 -380.23779297 476.40576172 C-376.54086462 472.64681412 -372.97823138 468.81348932 -369.5703125 464.7890625 C-367.17052913 462.05498094 -364.55590322 459.54736728 -361.96484375 456.99609375 C-360.07769256 455.07892823 -358.31314625 453.10424678 -356.5625 451.0625 C-353.28869347 447.25175937 -349.76636029 443.74921835 -346.19140625 440.22265625 C-343.57898932 437.5729856 -341.16697379 434.78827197 -338.74609375 431.96484375 C-336.27518611 429.18438168 -333.6183306 426.60881782 -330.96875 424 C-329.06013545 422.06108998 -327.27289448 420.06300449 -325.5 418 C-323.10323412 415.21103607 -320.62040609 412.58009215 -318 410 C-315.27746893 407.29873871 -312.59467848 404.57485158 -310 401.75 C-309.4225 401.12609375 -308.845 400.5021875 -308.25 399.859375 C-306.62805681 397.82014876 -306.62805681 397.82014876 -307 394 C-308.23684979 392.18145217 -308.23684979 392.18145217 -309.9921875 390.546875 C-310.92611328 389.61875 -310.92611328 389.61875 -311.87890625 388.671875 C-312.53761719 388.03765625 -313.19632812 387.4034375 -313.875 386.75 C-314.52597656 386.1003125 -315.17695313 385.450625 -315.84765625 384.78125 C-320.67793991 379.56367634 -320.67793991 379.56367634 -326.09765625 382.71875 Z " fill="#ffffff" transform="translate(435,3)"/>
</svg>
