<?xml version="1.0" encoding="UTF-8"?>
<svg version="1.1" xmlns="http://www.w3.org/2000/svg" width="512" height="512">
<path d="M0 0 C2.06762012 0.00566185 4.13523196 0.00846892 6.20285797 0.0110817 C27.61879766 0.05036862 48.83035614 0.60890856 70.09220123 3.31805801 C71.12881897 3.44887772 71.12881897 3.44887772 72.18637848 3.58234024 C117.5656092 9.35304955 175.94658928 18.09504314 207.37345123 55.06024551 C213.20245728 62.71743982 216.34809325 70.46635671 216.33271027 80.19609451 C216.33527354 81.17899321 216.33527354 81.17899321 216.3378886 82.18174845 C216.34115893 84.35742645 216.33022093 86.53278973 216.31925201 88.70843887 C216.31868737 90.27595385 216.31900551 91.84346936 216.32013702 93.41098404 C216.32070945 97.65221649 216.30897301 101.89333519 216.29498911 106.13454127 C216.28246336 110.57213685 216.2813098 115.00973521 216.27893829 119.44734573 C216.27272894 127.84426354 216.2563255 136.24112909 216.23623931 144.63802391 C216.21386335 154.20027024 216.20288261 163.76251911 216.19284844 173.32478511 C216.17195879 192.98923854 216.13679341 212.65364498 216.09220123 232.31805801 C214.34930817 232.35999283 214.34930817 232.35999283 212.57120514 232.40277481 C211.02868914 232.4608391 209.48621013 232.51989206 207.94376373 232.57977676 C206.79823029 232.60340286 206.79823029 232.60340286 205.62955475 232.62750626 C198.96126324 232.91984932 195.63291583 235.29130376 190.56485748 239.59540176 C144.95370363 277.09059436 65.41099862 279.2602938 9.09220123 280.31805801 C8.35131256 280.33465469 7.61042389 280.35125137 6.84708405 280.36835098 C2.59219906 280.45676701 -1.65391948 280.41612193 -5.90779877 280.31805801 C-7.28548431 280.2912294 -7.28548431 280.2912294 -8.69100189 280.2638588 C-147.92959081 277.29626597 -147.92959081 277.29626597 -183.90779877 241.31805801 C-183.97738241 250.99318291 -184.03065245 260.66822134 -184.06323528 270.3435421 C-184.0788753 274.83643956 -184.1000831 279.3291655 -184.13411713 283.82196426 C-184.16677005 288.15970795 -184.1846643 292.49728691 -184.1924305 296.83514404 C-184.19796337 298.48811688 -184.20876778 300.14108095 -184.22498894 301.79398346 C-184.24684248 304.11356547 -184.24976244 306.43247125 -184.24837494 308.75214005 C-184.25503677 310.07118332 -184.26169861 311.39022659 -184.26856232 312.74924088 C-183.61241409 319.24012124 -180.66949142 323.07394065 -175.90779877 327.31805801 C-175.32643158 327.84141739 -174.74506439 328.36477676 -174.14608002 328.90399551 C-146.34523165 352.30966214 -102.30625056 358.87164954 -67.65779877 363.50555801 C-66.51939545 363.66048721 -65.38099213 363.81541641 -64.20809174 363.97504044 C-39.4568978 367.08800382 -14.75839551 367.60623349 10.14212799 367.45538712 C13.99199849 367.43440859 17.84189866 367.42568589 21.69181061 367.41571426 C29.15869281 367.39467699 36.62540034 367.35970576 44.09220123 367.31805801 C44.75220123 376.22805801 45.41220123 385.13805801 46.09220123 394.31805801 C-19.05758306 410.60550409 -125.24482786 392.55544565 -181.90779877 359.31805801 C-182.89779877 358.65805801 -183.88779877 357.99805801 -184.90779877 357.31805801 C-184.86967176 366.95892519 -184.81020864 376.59936075 -184.72389603 386.23991776 C-184.68447457 390.71698801 -184.65226008 395.19386315 -184.63680267 399.67108536 C-184.62160077 403.99611214 -184.58709314 408.32060233 -184.53948975 412.64538956 C-184.52471224 414.29105323 -184.51675984 415.93679354 -184.51591492 417.58252335 C-184.50298287 431.00688097 -184.50298287 431.00688097 -178.04061127 442.56805801 C-132.40866263 482.34065137 -55.05115614 482.98013591 2.09220123 484.31805801 C2.09220123 493.55805801 2.09220123 502.79805801 2.09220123 512.31805801 C-40.88901867 512.95324846 -83.13417815 508.71568107 -124.90779877 498.31805801 C-125.83447357 498.09037735 -126.76114838 497.86269669 -127.71590424 497.62811661 C-156.31538155 490.46396053 -189.98120654 478.16654861 -206.90779877 452.31805801 C-210.349993 445.91678453 -212.02947897 440.41009894 -212.04481316 433.12781143 C-212.0498877 431.84884145 -212.05496224 430.56987146 -212.06019056 429.25214481 C-212.06079222 427.82977998 -212.06129131 426.4074151 -212.06169891 424.9850502 C-212.06571429 423.47634741 -212.07015264 421.96764569 -212.07497847 420.45894527 C-212.08694166 416.30677322 -212.09259184 412.15461278 -212.09715962 408.00242686 C-212.10311674 403.52641714 -212.11472637 399.05042129 -212.12545013 394.57442093 C-212.14997253 383.76096137 -212.16460152 372.94749722 -212.1775102 362.13401842 C-212.1812224 359.07946779 -212.18519561 356.02491761 -212.18926287 352.97036743 C-212.21450081 333.99981768 -212.23655277 315.02926721 -212.24899101 296.05870438 C-212.25192069 291.66452405 -212.25488235 287.27034375 -212.25789642 282.87616348 C-212.25864247 281.78401759 -212.25938852 280.6918717 -212.26015718 279.56663048 C-212.27280753 261.87929271 -212.30602632 244.19205555 -212.34769826 226.5047648 C-212.39013699 208.34302024 -212.41368833 190.18132716 -212.41891158 172.01953316 C-212.4223236 161.82344054 -212.43405415 151.62750511 -212.46701431 141.43146133 C-212.49504266 132.74682778 -212.50600194 124.06238364 -212.49481885 115.37770838 C-212.48963925 110.94880978 -212.49247337 106.52030766 -212.51728439 102.0914669 C-212.53984148 98.03094824 -212.53898748 93.97110935 -212.52008052 89.91057825 C-212.5172895 88.44749672 -212.52282887 86.98436846 -212.53789346 85.52136183 C-212.69124682 69.64821612 -207.54142497 59.31777438 -196.69686127 48.01337051 C-165.13432378 17.70914017 -112.77111771 9.62026742 -71.47029877 4.13055801 C-70.31884369 3.97562881 -69.16738861 3.82069962 -67.98104095 3.66107559 C-45.37955597 0.82120364 -22.76409026 -0.06343231 0 0 Z M-83.28279877 34.06805801 C-84.0158725 34.19367111 -84.74894623 34.31928421 -85.50423431 34.44870377 C-138.60259084 43.53515364 -138.60259084 43.53515364 -181.90779877 73.31805801 C-183.94036285 76.54334199 -184.88812525 79.39340281 -184.97029877 83.25555801 C-181.06197923 94.52071433 -170.40965579 101.32824243 -160.22029877 106.44305801 C-80.90929622 144.88088307 24.14561617 143.9164678 142.77970123 115.88055801 C158.40703213 110.3038441 180.26809193 101.96627662 188.09220123 86.31805801 C188.91514465 81.29706146 188.6331818 77.40571561 185.65470123 73.19305801 C155.53141284 37.733243 88.83656056 32.53127566 45.7362442 28.99501419 C32.63224519 28.02045821 19.5254104 27.97938449 6.39347076 28.00238419 C3.54011938 28.00699485 0.68719652 28.00014625 -2.16609955 27.98187637 C-29.38440733 27.80967561 -56.43300158 29.33115627 -83.28279877 34.06805801 Z M-184.90779877 124.31805801 C-185.02390558 134.08893334 -185.11262177 143.85964319 -185.16685963 153.63106918 C-185.19289789 158.16890798 -185.22818945 162.70627306 -185.28499603 167.24383926 C-185.33952316 171.62700905 -185.36926267 176.00972464 -185.38218498 180.39320755 C-185.3913879 182.06132019 -185.40935924 183.72940937 -185.43644905 185.39732742 C-185.82420401 197.79886238 -185.82420401 197.79886238 -179.90779877 208.31805801 C-179.40569382 208.92468277 -178.90358887 209.53130753 -178.38626862 210.15631485 C-173.21375818 216.22663045 -165.8688484 219.69604845 -158.90779877 223.31805801 C-157.79791595 223.90587051 -156.68803314 224.49368301 -155.54451752 225.09930801 C-120.09667107 242.76301406 -77.12839435 248.79454208 -37.90779877 251.31805801 C-36.62663177 251.4041835 -35.34546478 251.49030899 -34.02547455 251.57904434 C-22.23445391 252.33043087 -10.47068292 252.51944403 1.34220123 252.50555801 C2.78085541 252.50465164 2.78085541 252.50465164 4.2485733 252.50372696 C48.67924536 252.42824912 93.63381478 248.05510079 136.09220123 234.31805801 C136.89270905 234.05943985 137.69321686 233.80082169 138.51798248 233.53436661 C156.18524558 227.70117292 178.77398147 219.73907757 188.09220123 202.31805801 C189.355021 198.60158318 189.21235596 194.96903927 189.20572662 191.0709877 C189.20594566 189.98746521 189.20594566 189.98746521 189.20616913 188.88205338 C189.20547407 186.50131574 189.19770073 184.12065694 189.18985748 181.73993301 C189.18799186 180.0865521 189.18656864 178.43317063 189.18556976 176.77978897 C189.18175596 172.43311404 189.17193538 168.08647265 189.16086578 163.73981094 C189.15062722 159.30235625 189.1460669 154.86489612 189.14102936 150.42743301 C189.13031209 141.72429264 189.11324932 133.0211795 189.09220123 124.31805801 C188.06866547 124.86691666 187.0451297 125.4157753 185.9905777 125.98126602 C184.63092626 126.7088181 183.27124448 127.43631348 181.91153717 128.16376114 C181.23891846 128.52463821 180.56629974 128.88551529 179.87329865 129.25732803 C148.85041648 145.84166449 114.12459214 153.3038298 79.52970123 158.06805801 C78.80720184 158.16919907 78.08470245 158.27034012 77.34030914 158.37454605 C53.21572951 161.70587851 29.055453 162.7027199 4.72063828 162.63611603 C2.61702396 162.63045665 0.51341777 162.62764805 -1.59020233 162.62503433 C-23.14487834 162.58614788 -44.50555215 162.0562321 -65.90779877 159.31805801 C-66.59780975 159.23084488 -67.28782074 159.14363174 -67.99874115 159.05377579 C-108.18946318 153.94009596 -147.29034856 145.18258866 -182.90779877 125.31805801 C-183.56779877 124.98805801 -184.22779877 124.65805801 -184.90779877 124.31805801 Z " fill="#ffffff" transform="translate(211.90779876708984,-0.3180580139160156)"/>
<path d="M0 0 C3.25851737 1.79259464 5.73827767 4.49113217 8.33931637 7.10478401 C8.98524242 7.74224052 9.63116848 8.37969704 10.29666805 9.03647041 C12.43035048 11.14674442 14.55263939 13.26805035 16.67403316 15.39067268 C18.15015251 16.85969439 19.62657155 18.32841502 21.10327816 19.79684639 C24.19596659 22.87608226 27.28264312 25.96120207 30.36568356 29.05009651 C34.32481729 33.01513621 38.30191698 36.96159936 42.28413773 40.9034338 C45.3372779 43.93078011 48.37893085 46.96946482 51.4173708 50.01155853 C52.87951739 51.47200704 54.34567213 52.92845378 55.81581211 54.38085556 C57.86567307 56.40868571 59.89915705 58.45163307 61.92916012 60.49931526 C62.54361996 61.10051186 63.1580798 61.70170845 63.79115963 62.32112312 C65.4523077 64.01623726 65.4523077 64.01623726 67.81075191 66.99614143 C67.74997487 71.28654367 64.36732206 73.99811496 61.58084774 76.91653633 C61.02910073 77.50541935 60.47735371 78.09430236 59.90888709 78.70103031 C58.0514936 80.67837146 56.18305181 82.64488153 54.31392574 84.61113167 C52.97880789 86.02563337 51.64398653 87.44041498 50.30943966 88.8554554 C37.94748071 101.93284046 25.4213884 114.85396896 12.85621262 127.73587132 C4.44391646 136.36520744 -3.91692552 145.03341235 -12.15824223 153.8264637 C-51.76390953 196.02831313 -84.46011106 227.57003948 -142.75067997 237.56868172 C-151.47802695 239.12157245 -159.80412116 241.70447856 -168.21138573 244.47596264 C-169.20678462 244.80367373 -170.20218351 245.13138483 -171.22774601 245.46902657 C-172.09390128 245.76383132 -172.96005655 246.05863607 -173.85245895 246.36237431 C-176.18924809 246.99614143 -176.18924809 246.99614143 -180.18924809 246.99614143 C-177.80877747 237.92655665 -175.07430566 228.97623074 -172.29471684 220.02348518 C-171.82002664 218.49052349 -171.34544493 216.95752821 -170.870965 215.42450142 C-169.87955829 212.22282492 -168.88681502 209.02156682 -167.89310551 205.82060432 C-166.63678105 201.77331268 -165.38383415 197.72498509 -164.1319313 193.67632389 C-163.1526123 190.51061722 -162.17141334 187.34549548 -161.18970013 184.18053055 C-160.72797251 182.69119027 -160.26679477 181.20167938 -159.80624294 179.7119751 C-159.47958362 178.6558562 -159.47958362 178.6558562 -159.14632511 177.57840157 C-158.94365095 176.92296201 -158.7409768 176.26752245 -158.532161 175.59222108 C-158.09933446 174.20584133 -157.66107476 172.82113373 -157.21491086 171.43898851 C-156.07576465 167.90781825 -155.01738268 164.38553479 -154.11377716 160.78645134 C-150.69949668 148.01158177 -144.4173014 140.53015046 -135.07743168 131.44267464 C-133.63223789 129.99266818 -132.18965778 128.54005282 -130.74947453 127.08506966 C-126.86953268 123.18054718 -122.95365749 119.31408399 -119.02903414 115.4545424 C-114.91745977 111.39977214 -110.83830994 107.31261237 -106.75483036 103.22958565 C-99.90705006 96.39196061 -93.03688978 89.5775227 -86.15116215 82.77812386 C-78.1854741 74.91202223 -70.24992279 67.01653177 -62.33095205 59.10341769 C-53.88923777 50.66821518 -45.42860697 42.2522021 -36.96092367 33.84307647 C-34.52239095 31.41914478 -32.08718429 28.99191153 -29.6525774 26.56403732 C-25.83791157 22.76213798 -22.01060487 18.97343395 -18.17293072 15.19476509 C-16.76413854 13.80382689 -15.35957789 12.40858841 -13.95950603 11.00887299 C-12.05448366 9.105864 -10.13491777 7.21889604 -8.21057987 5.33545113 C-7.65435456 4.77284704 -7.09812924 4.21024295 -6.52504861 3.63059026 C-2.76313579 -0.00487005 -2.76313579 -0.00487005 0 0 Z M-5.93627262 43.44122505 C-6.43502075 43.92006848 -6.93376888 44.3989119 -7.44763058 44.89226574 C-9.13280115 46.51212162 -10.81408866 48.13594461 -12.49515629 49.76005745 C-13.69746242 50.91847025 -14.89979978 52.07685063 -16.10216618 53.23520088 C-27.17979189 63.92046895 -38.17709781 74.68801716 -49.15241051 85.47824383 C-56.51803754 92.71662336 -63.90638413 99.92805373 -71.36039066 107.07548714 C-77.87290565 113.32021801 -84.33360127 119.6137714 -90.74077004 125.9666037 C-94.12312593 129.31711958 -97.5233236 132.64156681 -100.98675823 135.90837479 C-121.61678062 155.41274389 -131.8453358 173.93135655 -137.18924809 201.99614143 C-137.18924809 202.98614143 -137.18924809 203.97614143 -137.18924809 204.99614143 C-133.84919174 204.36116553 -130.51915869 203.68223869 -127.18924809 202.99614143 C-125.46173313 202.65078346 -125.46173313 202.65078346 -123.69931889 202.29844856 C-99.63899546 197.18031671 -85.57368865 187.61407335 -69.15323734 169.59770393 C-66.47037962 166.68256684 -63.71486374 163.83771471 -60.96659184 160.98442268 C-54.10090136 153.82359402 -47.30523308 146.60185194 -40.81377506 139.09785652 C-37.46124651 135.25787838 -33.95041054 131.621827 -30.3359766 128.02934456 C-29.69121876 127.38444069 -29.04646091 126.73953682 -28.38216496 126.07509041 C-26.27985991 123.9734743 -24.17405031 121.87540873 -22.06815434 119.77739143 C-20.59820353 118.30930843 -19.12847537 116.84100246 -17.65895939 115.37248421 C-13.81268863 111.53001007 -9.96342302 107.69055004 -6.11350346 103.85173225 C-2.17663468 99.92513932 1.75736323 95.99567238 5.69161129 92.06645393 C13.39520113 84.373551 21.10196126 76.68383256 28.81075191 68.99614143 C27.86965548 67.88911669 26.92724225 66.78321131 25.98429012 65.6777668 C25.45962815 65.06179351 24.93496618 64.44582022 24.39440536 63.81118107 C22.10657903 61.18908248 19.68854586 58.7441198 17.22872066 56.28129768 C16.47924915 55.53039108 16.47924915 55.53039108 15.7146368 54.76431465 C14.67311311 53.7221178 13.63035521 52.68115295 12.58638668 51.64140511 C10.98094677 50.04139481 9.38100884 48.43601834 7.78145504 46.83012581 C6.764198 45.81352837 5.74663145 44.79724053 4.72872066 43.78129768 C3.80857174 42.86227669 2.88842281 41.94325569 1.94039059 40.99638557 C-1.81652708 37.46773414 -2.55603253 40.1895308 -5.93627262 43.44122505 Z " fill="#ffffff" transform="translate(444.189248085022,251.00385856628418)"/>
</svg>
