<?xml version="1.0" encoding="UTF-8"?>
<svg version="1.1" xmlns="http://www.w3.org/2000/svg" width="512" height="512">
<path d="M0 0 C4.35827088 4.5563741 7.62625312 9.7849675 7.8828125 16.19140625 C7.81707031 17.51978516 7.81707031 17.51978516 7.75 18.875 C8.73226562 18.8435791 8.73226562 18.8435791 9.734375 18.81152344 C12.73942328 18.72769617 15.74422464 18.67613105 18.75 18.625 C19.77996094 18.59148438 20.80992187 18.55796875 21.87109375 18.5234375 C29.09063757 18.43146879 34.91903949 19.2185296 40.30444336 24.35864258 C43.9538707 28.52472318 44.88276738 31.65191181 44.8125 37.0625 C44.80347656 37.96355469 44.79445313 38.86460938 44.78515625 39.79296875 C44.76775391 40.82357422 44.76775391 40.82357422 44.75 41.875 C46.03546974 41.86167633 46.03546974 41.86167633 47.34690857 41.8480835 C55.4526449 41.76768682 63.55824588 41.70690873 71.66429043 41.66775131 C75.83097383 41.64694271 79.99732571 41.61874962 84.16381836 41.57324219 C88.19036648 41.52954222 92.21659723 41.50581238 96.24336433 41.49549103 C97.77386529 41.48814269 99.30435034 41.47379367 100.83471489 41.45207977 C112.71408584 41.2903446 121.1238659 42.71160115 130.0234375 50.9375 C134.7813757 56.27672477 136.87292791 62.5117318 136.88142776 69.5757618 C136.88526891 70.77098933 136.88911005 71.96621687 136.8930676 73.19766343 C136.89220112 74.51738109 136.89133463 75.83709875 136.89044189 77.19680786 C136.89302491 78.60779015 136.89603789 80.0187717 136.8994453 81.42975223 C136.90752631 85.31634214 136.90930548 89.2029136 136.91004276 93.08951092 C136.91189145 97.27781356 136.91943793 101.46610659 136.92617798 105.65440369 C136.93977046 114.81775992 136.94578767 123.98111178 136.95018864 133.14447641 C136.95294997 138.86552301 136.95718716 144.58656792 136.96169281 150.30761337 C136.97388753 166.14508267 136.98418588 181.9825506 136.9875679 197.82002449 C136.98778747 198.83404573 136.98800703 199.84806697 136.98823325 200.89281612 C136.98845153 201.90927985 136.98866981 202.92574357 136.9888947 203.97300923 C136.98933817 206.0327874 136.98978473 208.09256558 136.99023438 210.15234375 C136.9904558 211.17406732 136.99067723 212.19579089 136.99090537 213.24847578 C136.99485239 229.79976631 137.01230256 246.35101279 137.0355939 262.90228631 C137.05930955 279.89216294 137.07176988 296.88201747 137.07293582 313.87191093 C137.07385255 323.41227292 137.07960426 332.95257755 137.09775543 342.49292374 C137.11315941 350.61805877 137.11827519 358.74311872 137.11001733 366.86826558 C137.10611165 371.01315339 137.10703633 375.15788999 137.12107468 379.30275917 C137.13381873 383.1002666 137.13261175 386.89750928 137.12048396 390.69501637 C137.11760395 392.71331354 137.12945903 394.7316153 137.14190602 396.74987614 C137.08288515 407.594874 135.48868631 414.95095986 127.9453125 422.92578125 C121.32770277 428.80155929 114.26022261 430.02428429 105.67341614 430.0423584 C104.26308712 430.05104848 104.26308712 430.05104848 102.82426661 430.05991411 C99.65994903 430.07801466 96.49564933 430.08885727 93.33129883 430.09960938 C91.06800167 430.11078204 88.80470617 430.12229528 86.54141235 430.13412476 C79.09664214 430.17071117 71.65185487 430.19590351 64.20703125 430.21875 C62.94104906 430.22269587 61.67506687 430.22664173 60.37072158 430.23070717 C48.43453591 430.26712392 36.49834566 430.29872624 24.5621233 430.31981659 C21.79784442 430.32478578 19.03356569 430.32983012 16.26928711 430.33496094 C15.58225009 430.33623161 14.89521306 430.33750228 14.18735673 430.33881146 C3.06067862 430.36016637 -8.06570395 430.40915754 -19.19223341 430.46920508 C-30.6190701 430.53036416 -42.04567839 430.56445261 -53.4726904 430.5742898 C-59.88722649 430.58055288 -66.30121897 430.59872583 -72.71559715 430.64567566 C-78.75106343 430.68930491 -84.78568813 430.69984134 -90.82128525 430.68504715 C-93.03522969 430.68537613 -95.24920996 430.69767768 -97.46301079 430.72289658 C-100.48919092 430.75554754 -103.51228535 430.74485513 -106.53849792 430.72351074 C-107.41195789 430.74321851 -108.28541786 430.76292628 -109.18534631 430.78323126 C-115.26248925 430.67520346 -118.25219382 428.87443231 -122.57017267 424.63526613 C-123.12451569 424.0543783 -123.67885871 423.47349048 -124.25 422.875 C-125.16659897 422.00030563 -126.08319794 421.12561127 -127.02757263 420.22441101 C-127.85950638 419.39327286 -128.69144012 418.5621347 -129.54858398 417.70581055 C-130.01631729 417.23982956 -130.4840506 416.77384857 -130.96595764 416.29374695 C-132.47849144 414.78553921 -133.98742721 413.27379411 -135.49609375 411.76171875 C-136.55829045 410.70019707 -137.62063543 409.63882376 -138.68312073 408.57759094 C-140.89250511 406.36967037 -143.10009677 404.15997746 -145.30639648 401.94897461 C-148.1365068 399.11312558 -150.97114035 396.28184673 -153.80709743 393.45184612 C-155.99385573 391.2686934 -158.17823672 389.08317461 -160.36189461 386.89692116 C-161.40697887 385.85116979 -162.45280656 384.80616083 -163.49938774 383.76190758 C-164.95441392 382.30941236 -166.40621109 380.85376575 -167.85717773 379.3972168 C-168.68354233 378.57005661 -169.50990692 377.74289642 -170.36131287 376.89067078 C-173.27764495 373.77826256 -173.37623146 371.99616443 -173.38422108 367.82827663 C-173.38867892 366.75347559 -173.39313676 365.67867455 -173.39772969 364.57130378 C-173.39754533 363.38096552 -173.39736097 362.19062726 -173.39717102 360.96421814 C-173.40084771 359.7070417 -173.4045244 358.44986527 -173.4083125 357.15459257 C-173.41834878 353.6533989 -173.42205192 350.15222238 -173.42470181 346.65101635 C-173.42860018 342.87919389 -173.43817899 339.10738507 -173.44691467 335.33557129 C-173.46669476 326.2194882 -173.47674831 317.10340397 -173.48564246 307.98730478 C-173.49002378 303.69535315 -173.49539109 299.40340275 -173.50063133 295.1114521 C-173.51764694 280.84472249 -173.5321405 266.57799366 -173.53938007 252.31125546 C-173.54129001 248.60732459 -173.54321033 244.90339373 -173.54516602 241.19946289 C-173.54564976 240.27885472 -173.5461335 239.35824656 -173.5466319 238.40974117 C-173.55492982 223.50086669 -173.58026122 208.5920725 -173.61274669 193.68323307 C-173.64582113 178.37936674 -173.66382928 163.07554119 -173.66702431 147.77163893 C-173.66918931 139.17803539 -173.67793614 130.58454886 -173.70348549 121.99098015 C-173.72519795 114.67095465 -173.73324034 107.35107456 -173.72351871 100.03102051 C-173.71897523 96.29721164 -173.72086253 92.56370276 -173.74028015 88.82993507 C-173.76117012 84.77796837 -173.75092243 80.72666635 -173.73774719 76.67466736 C-173.74871644 75.49994415 -173.75968568 74.32522094 -173.77098733 73.11490005 C-173.69233499 63.09597101 -170.99784268 55.96964876 -164.1875 48.6015625 C-158.45046721 43.48912603 -152.02566033 41.74793418 -144.48364258 41.76147461 C-143.80045456 41.76132858 -143.11726654 41.76118256 -142.41337585 41.7610321 C-140.15706193 41.76172831 -137.90083074 41.76950704 -135.64453125 41.77734375 C-134.07940211 41.77920897 -132.51427239 41.78063238 -130.94914246 41.78163147 C-126.83096707 41.78544848 -122.71282698 41.79527182 -118.59466553 41.80633545 C-114.39189125 41.81656709 -110.18911127 41.82113285 -105.98632812 41.82617188 C-97.74086922 41.83689481 -89.495439 41.85396146 -81.25 41.875 C-81.26305176 41.19155518 -81.27610352 40.50811035 -81.28955078 39.80395508 C-81.29970215 38.90572021 -81.30985352 38.00748535 -81.3203125 37.08203125 C-81.33336426 36.19233643 -81.34641602 35.3026416 -81.35986328 34.38598633 C-81.13524716 29.25226009 -78.98893404 26.58180647 -75.375 23.125 C-70.80476396 19.83443005 -67.35445778 18.61684963 -61.73046875 18.6796875 C-60.70888672 18.68613281 -59.68730469 18.69257812 -58.63476562 18.69921875 C-57.57966797 18.71597656 -56.52457031 18.73273437 -55.4375 18.75 C-54.36306641 18.75902344 -53.28863281 18.76804687 -52.18164062 18.77734375 C-49.53753146 18.80084694 -46.89388128 18.83370425 -44.25 18.875 C-44.2082666 18.28041992 -44.1665332 17.68583984 -44.12353516 17.07324219 C-43.46400328 9.51245484 -41.17632787 4.49320797 -35.5078125 -0.73046875 C-24.09776361 -9.37675024 -11.33912714 -7.41404467 0 0 Z M-28.921875 14.13671875 C-30.4920103 17.37396829 -30.49591118 19.43019214 -30.3125 23 C-30.04198141 28.56297211 -30.04198141 28.56297211 -32.25 31.875 C-35.36694336 32.25976562 -35.36694336 32.25976562 -39.33984375 32.28125 C-40.39033653 32.29750427 -40.39033653 32.29750427 -41.46205139 32.31408691 C-43.70396132 32.34841675 -45.94536151 32.3639538 -48.1875 32.375 C-51.13460642 32.38955361 -54.08057133 32.4232168 -57.02734375 32.46875 C-58.33952881 32.47583984 -59.65171387 32.48292969 -61.00366211 32.49023438 C-64.15483471 32.63900796 -64.15483471 32.63900796 -66.17871094 34.03100586 C-67.71356283 36.67292389 -67.6218352 38.74110442 -67.61328125 41.78515625 C-67.61263672 42.93951172 -67.61199219 44.09386719 -67.61132812 45.28320312 C-67.59521484 46.48912109 -67.57910156 47.69503906 -67.5625 48.9375 C-67.56572266 50.14728516 -67.56894531 51.35707031 -67.57226562 52.60351562 C-67.99866131 58.8209007 -67.99866131 58.8209007 -65.25 63.875 C-62.27793006 64.07386124 -59.39900969 64.14764641 -56.42578125 64.13378906 C-55.51186615 64.1372937 -54.59795105 64.14079834 -53.65634155 64.14440918 C-50.62498455 64.15323649 -47.59385952 64.14737381 -44.5625 64.140625 C-42.46264603 64.14197136 -40.36279236 64.14391165 -38.26293945 64.14642334 C-33.85788002 64.14937596 -29.45290159 64.14507251 -25.04785156 64.13574219 C-19.39145969 64.12434761 -13.73525759 64.13090634 -8.07887268 64.14288712 C-3.74156251 64.15010198 0.59570241 64.1478195 4.93301392 64.14263153 C7.01909406 64.141294 9.10517826 64.14294635 11.19125366 64.14759064 C14.10287414 64.15264973 17.014184 64.14495432 19.92578125 64.13378906 C20.79441803 64.13783752 21.66305481 64.14188599 22.55801392 64.14605713 C27.13141252 64.32133438 27.13141252 64.32133438 30.75 61.875 C31.2096469 57.58046793 31.07399779 53.25377182 31.0625 48.9375 C31.07861328 47.73158203 31.09472656 46.52566406 31.11132812 45.28320312 C31.11229492 43.55166992 31.11229492 43.55166992 31.11328125 41.78515625 C31.11626221 40.72433838 31.11924316 39.66352051 31.12231445 38.57055664 C30.92919222 35.91505884 30.92919222 35.91505884 29.67871094 34.03100586 C26.67719285 32.2319947 23.99689789 32.48749629 20.52734375 32.46875 C19.47541588 32.45249573 19.47541588 32.45249573 18.40223694 32.43591309 C15.40421208 32.39002612 12.40627241 32.37854113 9.40795898 32.36376953 C7.2182703 32.34811365 5.02931383 32.31512767 2.83984375 32.28125 C0.87325806 32.27061523 0.87325806 32.27061523 -1.13305664 32.25976562 C-2.6759436 32.06930664 -2.6759436 32.06930664 -4.25 31.875 C-6.98700337 27.76949495 -6.27436288 24.69064833 -6.02734375 19.8828125 C-6.28665713 16.37980721 -7.1775024 14.6786825 -9.25 11.875 C-12.27926599 9.38427019 -14.36904534 8.02182578 -18.25 7.375 C-22.9974468 8.16624113 -26.07038281 10.27920945 -28.921875 14.13671875 Z M-155.25 59.875 C-159.80114902 66.1711995 -159.80895932 72.51390708 -159.73101807 80.03637695 C-159.73443577 81.2478603 -159.73785347 82.45934364 -159.74137473 83.7075386 C-159.7468069 87.05328112 -159.73437391 90.39807906 -159.71426249 93.74370694 C-159.69693717 97.35777792 -159.70283777 100.9718214 -159.70587158 104.58592224 C-159.70796575 110.84189718 -159.69544978 117.09770483 -159.67292023 123.3536377 C-159.64036792 132.39856069 -159.62998991 141.44340306 -159.62496826 150.48837829 C-159.61622067 165.16433577 -159.58961965 179.84020415 -159.55175781 194.51611328 C-159.51502384 208.76968949 -159.48671887 223.02324146 -159.46972656 237.27685547 C-159.46867567 238.15591738 -159.46762477 239.03497928 -159.46654204 239.94067943 C-159.46132176 244.35081522 -159.45626696 248.76095119 -159.45129442 253.17108727 C-159.40984908 289.73912107 -159.33941526 326.30705359 -159.25 362.875 C-158.01866333 362.88901855 -158.01866333 362.88901855 -156.76245117 362.90332031 C-153.66251508 362.94782013 -150.56350047 363.00964576 -147.46411133 363.08251953 C-145.48476765 363.12400921 -143.50504969 363.14622512 -141.52539062 363.16796875 C-131.93199004 363.41083965 -124.06108105 364.84580082 -115.875 370 C-109.59960127 376.87305575 -107.21364614 384.48766843 -106.93359375 393.609375 C-106.89169922 394.90488281 -106.84980469 396.20039063 -106.80664062 397.53515625 C-106.76683329 398.89843476 -106.72712094 400.26171606 -106.6875 401.625 C-106.64427726 403.00391875 -106.60066179 404.38282526 -106.55664062 405.76171875 C-106.45056042 409.1327119 -106.3485015 412.50377826 -106.25 415.875 C-78.09491268 415.96844194 -49.9398486 416.03897862 -21.78463745 416.08224869 C-8.71167823 416.10287375 4.36118465 416.13099348 17.43408203 416.17675781 C28.8284356 416.21662705 40.22271939 416.24243322 51.61714077 416.25135398 C57.65039648 416.25656852 63.68345256 416.26882383 69.71664429 416.29792023 C75.39651225 416.32509045 81.07609853 416.33344161 86.75602531 416.32743073 C88.83932972 416.32853023 90.92264364 416.33647435 93.0058918 416.3518219 C95.85420706 416.3717747 98.70146405 416.36691968 101.54980469 416.35601807 C102.37083774 416.36766943 103.19187078 416.3793208 104.03778362 416.39132524 C109.63828607 416.33353561 114.26447273 415.39679932 118.75 411.875 C124.05657389 405.80608045 123.31091099 397.80215746 123.25793457 390.2109375 C123.26254805 388.82379503 123.26890397 387.43665745 123.27684355 386.04953003 C123.29349886 382.25198687 123.28530804 378.45484722 123.27289867 374.65730286 C123.26383484 370.55633855 123.27782451 366.4554428 123.28881836 362.35449219 C123.30659397 354.32635281 123.30276788 346.29836311 123.2911678 338.2702179 C123.28212997 331.74491143 123.28091098 325.21964687 123.28526306 318.69433594 C123.28618246 317.30064443 123.28618246 317.30064443 123.28712043 315.87879753 C123.28839935 313.99122364 123.2896962 312.10364976 123.2910108 310.2160759 C123.30241379 292.52112795 123.2893073 274.82626293 123.26780933 257.13132858 C123.24993861 241.9520942 123.25304279 226.77298218 123.27148438 211.59375 C123.29289604 193.96161891 123.30131518 176.32956048 123.28903532 158.69741821 C123.28776114 156.81683351 123.28650366 154.93624879 123.28526306 153.05566406 C123.28464596 152.13040861 123.28402886 151.20515316 123.28339306 150.25185966 C123.27994105 143.7352715 123.28576529 137.21872946 123.29518127 130.70214844 C123.30640592 122.75932543 123.30335142 114.81666052 123.2820583 106.87385559 C123.27155413 102.8221873 123.26741514 98.77078249 123.28065491 94.71911621 C123.29259796 91.00811776 123.28598528 87.29762636 123.2647447 83.58667374 C123.25817922 81.61262198 123.27119768 79.63853487 123.28497362 77.66452026 C123.22258022 70.59783217 122.62960559 65.85131298 118.75 59.875 C112.41312728 54.25478751 104.41609168 55.36640058 96.41015625 55.484375 C94.9180121 55.49184484 93.42585807 55.49753426 91.93370056 55.50152588 C88.02575103 55.51672403 84.1184058 55.55595415 80.21069336 55.6003418 C76.21541516 55.64142121 72.22003835 55.65956379 68.22460938 55.6796875 C60.3994655 55.72245534 52.57481775 55.79063436 44.75 55.875 C44.62665283 56.69991943 44.50330566 57.52483887 44.3762207 58.37475586 C44.20695068 59.45635986 44.03768066 60.53796387 43.86328125 61.65234375 C43.69868408 62.72476318 43.53408691 63.79718262 43.36450195 64.90209961 C42.39095391 69.61202991 40.4407065 72.50672634 36.73948669 75.50209045 C32.40488243 77.49273975 28.44791715 77.30152207 23.73071289 77.27905273 C22.72524918 77.28591599 21.71978546 77.29277924 20.68385315 77.29985046 C17.36331015 77.31813762 14.04323876 77.3142781 10.72265625 77.30859375 C8.41246893 77.31315462 6.10228298 77.31845991 3.792099 77.32447815 C-1.04905714 77.33341304 -5.89004834 77.33098171 -10.73120117 77.32104492 C-16.93319016 77.30955505 -23.13460982 77.32976565 -29.33652401 77.35896206 C-34.10721957 77.37731354 -38.87777844 77.37703365 -43.64850044 77.37132454 C-45.93503175 77.3711712 -48.22157225 77.37722622 -50.50806999 77.38961601 C-53.70618213 77.40450373 -56.9032391 77.39386436 -60.10131836 77.37670898 C-61.04436829 77.38637695 -61.98741821 77.39604492 -62.95904541 77.40600586 C-68.69747511 77.34159212 -71.83756063 76.61849317 -76.25 72.875 C-77.67578125 71.05078125 -77.67578125 71.05078125 -78.5625 69.1875 C-79.02076172 68.28451172 -79.02076172 68.28451172 -79.48828125 67.36328125 C-80.23422804 64.92652174 -80.5342789 62.7483173 -80.79760742 60.21948242 C-80.8835466 59.40662277 -80.96948578 58.59376312 -81.05802917 57.75627136 C-81.12137955 57.13545181 -81.18472992 56.51463226 -81.25 55.875 C-89.86476456 55.78211731 -98.47931818 55.71114305 -107.09446049 55.66775131 C-111.0952994 55.64692017 -115.09579448 55.61868541 -119.09643555 55.57324219 C-122.96087945 55.5296232 -126.82499366 55.50582927 -130.68966484 55.49549103 C-132.16041691 55.48812828 -133.63115193 55.4737505 -135.10176277 55.45207977 C-145.97838816 55.01411589 -145.97838816 55.01411589 -155.25 59.875 Z M-148.25 376.875 C-143.44190414 382.70128086 -138.23195045 388.04723502 -132.88012695 393.37524414 C-131.41953741 394.83039571 -129.96446797 396.29091857 -128.50976562 397.75195312 C-127.13401367 399.12577148 -127.13401367 399.12577148 -125.73046875 400.52734375 C-124.89410889 401.36257568 -124.05774902 402.19780762 -123.19604492 403.05834961 C-121.57186815 404.98873114 -121.57186815 404.98873114 -120.25 404.875 C-120.16847656 402.33267658 -120.10926284 399.79300798 -120.0625 397.25 C-120.03736328 396.53714844 -120.01222656 395.82429688 -119.98632812 395.08984375 C-119.91022309 389.5595444 -120.91306393 385.49860022 -124.71484375 381.23046875 C-130.19969453 376.88041468 -134.15802834 376.7284304 -141 376.8125 C-141.69738281 376.81701172 -142.39476562 376.82152344 -143.11328125 376.82617188 C-144.82555803 376.8378998 -146.53779033 376.85583347 -148.25 376.875 Z " fill="#ffffff" transform="translate(274.25,44.125)"/>
<path d="M0 0 C10.23463915 1.3615998 18.52021511 2.68727878 25.33203125 11.08203125 C27.90488763 15.66573731 28.92055421 20.19828105 30.03125 25.3046875 C30.25167969 26.26246094 30.47210938 27.22023438 30.69921875 28.20703125 C32.28125 35.17386452 32.28125 35.17386452 32.28125 37.5546875 C32.91055011 37.55100033 33.53985022 37.54731316 34.18822002 37.54351425 C49.50338396 37.45516107 64.8184592 37.388977 80.13381481 37.34743881 C87.54023074 37.3268171 94.9464765 37.29870421 102.3527832 37.25292969 C108.80844131 37.21304966 115.26397617 37.18725183 121.71975404 37.17833352 C125.13782496 37.17312065 128.55554333 37.16087737 131.97350121 37.13176727 C135.7900841 37.10280217 139.6059326 37.0987288 143.42260742 37.10058594 C144.55477188 37.08620483 145.68693634 37.07182373 146.85340881 37.05700684 C154.4788934 37.09725386 154.4788934 37.09725386 158.49317932 39.385849 C160.28125 41.5546875 160.28125 41.5546875 160.74902344 44.71020508 C160.18640527 49.33418642 159.11139753 53.60564729 157.796875 58.06640625 C157.54000916 58.95705276 157.28314331 59.84769928 157.01849365 60.76533508 C156.47509712 62.63831998 155.92684966 64.5099036 155.37402344 66.38012695 C154.53215867 69.23910166 153.71453875 72.1042825 152.8984375 74.97070312 C152.36603716 76.79469581 151.83223069 78.61827879 151.296875 80.44140625 C150.93411469 81.72273689 150.93411469 81.72273689 150.56402588 83.029953 C150.32407898 83.82790787 150.08413208 84.62586273 149.83691406 85.44799805 C149.6326178 86.14636276 149.42832153 86.84472748 149.21783447 87.56425476 C147.49750755 91.22029981 145.30199125 93.14091921 141.5748291 94.65176392 C140.5375769 94.93248749 139.50032471 95.21321106 138.43164062 95.50244141 C137.24563263 95.8305632 136.05962463 96.158685 134.837677 96.49674988 C133.53768474 96.84183477 132.23762372 97.1866607 130.9375 97.53125 C129.5823464 97.90097392 128.22752429 98.27191477 126.87301636 98.64399719 C124.00047175 99.4303943 121.12584328 100.20841334 118.24920654 100.97970581 C113.77915791 102.17825675 109.31428857 103.39531851 104.85009766 104.61547852 C98.99216584 106.21486526 93.13233324 107.8070337 87.27050781 109.39208984 C78.13109539 111.86371911 68.99801105 114.35771811 59.87280273 116.88128662 C57.71667322 117.47553434 55.55871828 118.06272035 53.40039062 118.64892578 C44.60732179 120.98256912 44.60732179 120.98256912 36.28125 124.5546875 C34.45473723 127.91547099 34.03979137 129.58885297 34.96875 133.3046875 C36.22281342 135.8329371 36.22281342 135.8329371 39.28125 137.5546875 C42.25920489 137.75315373 45.14513448 137.83481529 48.1237793 137.82592773 C49.02820267 137.83115448 49.93262604 137.83638123 50.86445618 137.84176636 C52.83039805 137.85201442 54.79636712 137.85778816 56.76233482 137.85964775 C59.87755893 137.8633072 62.99246346 137.88002421 66.10762024 137.90040588 C74.96548508 137.95584627 83.82339793 137.98645117 92.68139648 138.01098633 C98.09902444 138.02689742 103.51642769 138.05715904 108.93393898 138.09575081 C110.99549783 138.10737503 113.05709696 138.11333093 115.11868858 138.11343193 C118.00994547 138.11362486 120.90058713 138.13195688 123.79174805 138.15405273 C124.63724213 138.14947556 125.48273621 138.14489838 126.35385132 138.1401825 C132.89286973 138.2192797 138.53788425 139.30774032 143.7421875 143.5703125 C149.03316104 149.74671426 151.63962091 154.30506223 151.09375 162.6171875 C150.18379518 169.52029302 147.62380737 174.04319461 142.28125 178.5546875 C136.29839488 182.73859757 130.46707704 183.57224257 123.28125 182.5546875 C116.24201927 180.50713157 112.03626593 175.76167128 108.125 169.7890625 C106.2409964 164.79994186 107.18470178 158.76829117 107.28125 153.5546875 C96.88625 153.0596875 96.88625 153.0596875 86.28125 152.5546875 C86.61125 153.5446875 86.94125 154.5346875 87.28125 155.5546875 C88.26469815 163.21153379 86.79517253 169.26550526 82.28125 175.5546875 C77.1320469 180.5815333 72.63741536 182.66921666 65.46875 182.8046875 C58.85919312 182.71733653 53.60524879 180.58344647 48.63671875 176.12109375 C43.93896683 170.69227957 42.83194696 164.71578839 43.04296875 157.71875 C43.28125 155.5546875 43.28125 155.5546875 44.28125 152.5546875 C43.724375 152.60109375 43.1675 152.6475 42.59375 152.6953125 C36.55286688 152.98102995 32.26114897 152.06350034 27.28125 148.5546875 C21.92519138 143.31765241 19.60622888 137.96696578 18.90625 130.6171875 C19.29015568 122.78551161 21.85167727 117.29199268 27.46484375 111.8671875 C29.42733017 110.4491328 30.9435759 110.07262435 33.28125 109.5546875 C33.06621826 108.62986572 32.85118652 107.70504395 32.62963867 106.75219727 C31.77230435 103.06246122 30.91723944 99.37220182 30.06280518 95.68179321 C29.66687704 93.97252511 29.27051495 92.26335746 28.87371826 90.55429077 C26.29655494 79.44868491 23.78065674 68.33171906 21.33984375 57.1953125 C20.84692282 54.95756528 20.35384105 52.71985347 19.8605957 50.48217773 C19.1331326 47.18166924 18.40914436 43.88059828 17.69613647 40.57693481 C17.02762173 37.48026844 16.34699331 34.38648264 15.6640625 31.29296875 C15.46747543 30.36546814 15.27088837 29.43796753 15.06834412 28.48236084 C14.8770845 27.62620178 14.68582489 26.77004272 14.48876953 25.88793945 C14.32716339 25.14397415 14.16555725 24.40000885 13.99905396 23.63349915 C13.14421154 21.15781431 12.01356268 19.51123794 10.28125 17.5546875 C7.85990909 16.69338811 7.85990909 16.69338811 5.09765625 16.39453125 C4.08767578 16.24048828 3.07769531 16.08644531 2.03710938 15.92773438 C0.98330078 15.78400391 -0.07050781 15.64027344 -1.15625 15.4921875 C-3.23978264 15.19929065 -5.32192472 14.89628193 -7.40234375 14.58203125 C-8.32587646 14.45562256 -9.24940918 14.32921387 -10.20092773 14.19897461 C-13.01265251 13.4794806 -14.58900521 12.50659645 -16.71875 10.5546875 C-17.21484375 8.6171875 -17.21484375 8.6171875 -17.15625 6.5546875 C-17.15496094 5.8740625 -17.15367187 5.1934375 -17.15234375 4.4921875 C-15.41747224 -3.26003116 -5.88053501 -0.62273107 0 0 Z M35.28125 51.5546875 C39.26894609 71.62631424 39.26894609 71.62631424 43.59375 91.6171875 C43.85736328 92.79216797 44.12097656 93.96714844 44.39257812 95.17773438 C45.01955782 97.97064392 45.64904284 100.7629576 46.28125 103.5546875 C50.66235876 104.90212275 54.09245392 103.82075715 58.39868164 102.63623047 C59.2137468 102.42007584 60.02881195 102.2039212 60.86857605 101.98121643 C63.56241923 101.26346098 66.25199809 100.53106127 68.94140625 99.796875 C70.81172414 99.29146563 72.68212222 98.78635291 74.55259705 98.28152466 C78.47262128 97.22067861 82.39035531 96.15179744 86.30688477 95.078125 C91.32775351 93.70308365 96.35541845 92.3549597 101.38538456 91.01363945 C105.25031908 89.9785788 109.11029193 88.92590564 112.96908379 87.86819839 C114.82095946 87.36358936 116.67456589 86.8652884 118.52986336 86.37340927 C121.12307887 85.68378469 123.70839964 84.96989365 126.29321289 84.24951172 C127.06160492 84.05085007 127.82999695 83.85218842 128.62167358 83.64750671 C132.09447648 82.65341735 133.9860962 81.93684276 136.22479248 79.03825378 C137.27129368 76.57809324 138.15493957 74.18489089 138.88671875 71.61328125 C139.27827148 70.24333008 139.27827148 70.24333008 139.67773438 68.84570312 C139.93876953 67.90404297 140.19980469 66.96238281 140.46875 65.9921875 C140.74138672 65.04666016 141.01402344 64.10113281 141.29492188 63.12695312 C142.44207023 59.0587453 143.28125 55.81992541 143.28125 51.5546875 C107.64125 51.5546875 72.00125 51.5546875 35.28125 51.5546875 Z M60.59375 154.1796875 C57.79853023 157.05045375 57.36395587 158.58480556 57.28125 162.5546875 C58.08654388 165.19019474 58.83467962 166.21975972 61.03125 167.8671875 C64.20767136 168.83776069 66.11726738 168.54343207 69.28125 167.5546875 C71.8527439 165.4861988 71.8527439 165.4861988 73.28125 162.5546875 C73.52802006 159.45175457 73.52802006 159.45175457 72.28125 156.5546875 C70.07636741 154.09052616 70.07636741 154.09052616 67.28125 152.5546875 C63.32830697 152.20974127 63.32830697 152.20974127 60.59375 154.1796875 Z M122.28125 155.5546875 C120.83694145 158.44330459 120.90436494 160.35116451 121.28125 163.5546875 C123.19791667 166.63802083 123.19791667 166.63802083 126.28125 168.5546875 C130.13335127 168.62110304 132.27973005 168.42697907 135.21875 165.8671875 C136.60556433 162.8488269 136.6925374 160.84498671 136.28125 157.5546875 C135.29090774 155.15084755 135.29090774 155.15084755 133.28125 153.5546875 C128.56593697 152.01708542 126.1835841 152.54431548 122.28125 155.5546875 Z " fill="#ffffff" transform="translate(176.71875,238.4453125)"/>
<path d="M0 0 C0.94230469 -0.01611328 1.88460937 -0.03222656 2.85546875 -0.04882812 C9.34923349 -0.05331897 16.62145087 0.25703027 21.74951172 4.72924805 C25.85079175 9.450015 26.24822252 13.10876327 26.22265625 19.16796875 C26.2212413 19.82960526 26.21982635 20.49124176 26.21836853 21.17292786 C26.21277996 23.28199828 26.20022965 25.39096177 26.1875 27.5 C26.18248352 28.93163909 26.17792087 30.36327985 26.17382812 31.79492188 C26.1628143 35.30081588 26.14555755 38.8066475 26.125 42.3125 C27.30578125 42.26609375 28.4865625 42.2196875 29.703125 42.171875 C31.26039134 42.13435051 32.81768508 42.09795107 34.375 42.0625 C35.54095703 42.01222656 35.54095703 42.01222656 36.73046875 41.9609375 C40.42972014 41.89770243 42.50414912 41.91256538 45.671875 43.953125 C47.55566476 47.01175138 47.45208969 48.7572252 47.125 52.3125 C45.79907227 54.73095703 45.79907227 54.73095703 43.94140625 57.0703125 C43.2659375 57.9365625 42.59046875 58.8028125 41.89453125 59.6953125 C40.80205078 61.05269531 40.80205078 61.05269531 39.6875 62.4375 C38.19898082 64.33575095 36.71069753 66.2341869 35.22265625 68.1328125 C34.50609863 69.03676758 33.78954102 69.94072266 33.05126953 70.87207031 C30.8578417 73.65096823 28.73187116 76.46760548 26.625 79.3125 C25.58053936 80.70579021 24.53601698 82.09903436 23.49072266 83.49169922 C22.41382486 84.92743461 21.33825961 86.36416949 20.26318359 87.80126953 C18.11863769 90.66349615 15.96608834 93.51957261 13.8125 96.375 C13.11769531 97.30505859 12.42289062 98.23511719 11.70703125 99.19335938 C11.04445313 100.06927734 10.381875 100.94519531 9.69921875 101.84765625 C9.10713623 102.635354 8.51505371 103.42305176 7.9050293 104.23461914 C6.11437175 106.32490667 4.45013525 107.84449852 2.125 109.3125 C-0.6875 109.5 -0.6875 109.5 -3.875 108.3125 C-9.06776842 103.71889717 -12.99270926 97.58249518 -17.09765625 92.0390625 C-19.91438449 88.24172695 -22.78724932 84.4881353 -25.66040039 80.73339844 C-28.42511775 77.11688067 -31.17644682 73.49025657 -33.92871094 69.86425781 C-35.72346435 67.5111767 -37.53511284 65.17227851 -39.3515625 62.8359375 C-40.35999149 61.51609581 -41.36784669 60.1958154 -42.375 58.875 C-43.06891846 57.99944458 -43.06891846 57.99944458 -43.77685547 57.10620117 C-45.78613836 54.43954098 -46.84949464 52.46421937 -47.40625 49.15234375 C-46.875 46.3125 -46.875 46.3125 -45.421875 43.953125 C-41.68955591 41.54887037 -38.46194295 41.8755008 -34.125 42.0625 C-33.33222656 42.08054688 -32.53945312 42.09859375 -31.72265625 42.1171875 C-29.77291652 42.16416918 -27.82380122 42.23590956 -25.875 42.3125 C-25.89071045 41.43513184 -25.9064209 40.55776367 -25.92260742 39.65380859 C-25.97394376 36.37738048 -26.01144997 33.10138402 -26.03979492 29.82470703 C-26.05481825 28.41057563 -26.07524305 26.99649032 -26.10131836 25.58251953 C-26.13798954 23.54187603 -26.15479036 21.50185208 -26.16796875 19.4609375 C-26.1836792 18.23552246 -26.19938965 17.01010742 -26.21557617 15.74755859 C-25.72699957 10.81976448 -24.11226842 7.54976842 -20.625 4.0625 C-14.1334226 -0.0685038 -7.4759886 -0.02535953 0 0 Z M-11.875 16.3125 C-11.99802889 18.94181398 -12.06108526 21.54894891 -12.0859375 24.1796875 C-12.114007 25.80339548 -12.14267147 27.42709327 -12.171875 29.05078125 C-12.21315727 31.62060249 -12.25002802 34.19023358 -12.27636719 36.76025391 C-12.30394086 39.23380274 -12.34981372 41.70647501 -12.3984375 44.1796875 C-12.40169037 44.94852264 -12.40494324 45.71735779 -12.40829468 46.50949097 C-12.53101128 51.82285895 -12.53101128 51.82285895 -14.26342773 54.28881836 C-17.44808804 56.3117362 -21.20617575 56.04664317 -24.875 56.3125 C-20.44116018 63.19193914 -15.62150165 69.70851983 -10.625 76.1875 C-9.20235369 78.03846993 -7.78044465 79.89000683 -6.359375 81.7421875 C-5.73772461 82.54897949 -5.11607422 83.35577148 -4.47558594 84.18701172 C-3.21958455 85.85491106 -2.03317199 87.57524201 -0.875 89.3125 C2.57552233 88.16232589 3.09612899 87.35721278 5.1640625 84.48046875 C5.74075684 83.68688965 6.31745117 82.89331055 6.91162109 82.07568359 C7.51828613 81.22570801 8.12495117 80.37573242 8.75 79.5 C10.00472219 77.76657509 11.259931 76.03350231 12.515625 74.30078125 C13.12857422 73.45080566 13.74152344 72.60083008 14.37304688 71.72509766 C17.40007141 67.55661153 20.52683744 63.46499703 23.6484375 59.3671875 C25.22226207 57.59885864 25.22226207 57.59885864 25.125 56.3125 C24.51011719 56.27511719 23.89523437 56.23773438 23.26171875 56.19921875 C22.45347656 56.13347656 21.64523437 56.06773437 20.8125 56 C19.61173828 55.91298828 19.61173828 55.91298828 18.38671875 55.82421875 C15.53237358 55.17841699 14.81379946 54.71637403 13.125 52.3125 C12.8059137 49.53199765 12.66021471 46.96330115 12.6484375 44.1796875 C12.63285797 43.3872464 12.61727844 42.5948053 12.60122681 41.77835083 C12.55369749 39.24807702 12.52593496 36.71807956 12.5 34.1875 C12.46355093 31.649973 12.42298694 29.11260412 12.37734985 26.57522583 C12.35005134 24.99611647 12.32873146 23.4168908 12.31381226 21.83761597 C12.59048191 18.27897613 12.59048191 18.27897613 11.125 15.3125 C9.50242456 15.2133343 7.87560169 15.18170223 6.25 15.1796875 C5.26515625 15.17839844 4.2803125 15.17710937 3.265625 15.17578125 C1.71101563 15.18158203 1.71101563 15.18158203 0.125 15.1875 C-0.91140625 15.18363281 -1.9478125 15.17976562 -3.015625 15.17578125 C-4.00046875 15.17707031 -4.9853125 15.17835938 -6 15.1796875 C-6.91007812 15.18081543 -7.82015625 15.18194336 -8.7578125 15.18310547 C-10.8602848 15.07689991 -10.8602848 15.07689991 -11.875 16.3125 Z " fill="#ffffff" transform="translate(255.875,153.6875)"/>
</svg>
