<?xml version="1.0" encoding="UTF-8"?>
<svg version="1.1" xmlns="http://www.w3.org/2000/svg" width="512" height="512">
<path d="M0 0 C0.7528125 -0.01289063 1.505625 -0.02578125 2.28125 -0.0390625 C5.65954191 0.97204599 6.62634262 2.67297344 8.5 5.625 C8.86582159 8.52695015 9.01221314 11.05464202 8.96875 13.94921875 C8.979745 15.62166498 8.99098522 17.2941096 9.00244141 18.96655273 C9.00125305 19.83915741 9.0000647 20.71176208 8.99884033 21.61080933 C9.02501856 82.59850796 31.31472925 137.64651902 73.5 181.625 C74.28246094 182.44871094 75.06492187 183.27242187 75.87109375 184.12109375 C81.37158079 189.77845743 87.27390213 194.78424871 93.5 199.625 C94.31549316 200.26308594 94.31549316 200.26308594 95.14746094 200.9140625 C141.18720864 236.67918167 200.92263382 253.12419185 258.7578125 245.875 C286.5103572 242.09253183 312.834773 233.95933044 337.5 220.625 C338.0986084 220.30563477 338.6972168 219.98626953 339.31396484 219.65722656 C354.35095226 211.58340121 368.20883011 201.44674862 380.6875 189.8125 C385.22187679 185.70388629 388.84455209 182.66187051 395.2109375 182.59765625 C400.15443113 184.14176412 402.88451683 187.4771705 406.375 191.1875 C407.06335938 191.89841797 407.75171875 192.60933594 408.4609375 193.34179688 C410.15249913 195.09209328 411.83127058 196.85296828 413.5 198.625 C417.78186259 183.66846255 421.56549775 168.59806225 425.3125 153.5 C425.91579369 151.07676765 426.51930783 148.65359018 427.12304688 146.23046875 C428.58456826 140.36260808 430.04338653 134.4940808 431.5 128.625 C422.66775253 130.82149034 413.83613806 133.02050291 405.00532722 135.22276211 C400.90506541 136.24521531 396.80458873 137.26678954 392.70361328 138.28637695 C388.74793853 139.26987357 384.79283851 140.25565032 380.83813095 141.24302864 C379.32722199 141.61983014 377.81610577 141.99580153 376.30478287 142.37093925 C374.19238434 142.89542358 372.08073377 143.42282152 369.96923828 143.95092773 C368.76566681 144.2507103 367.56209534 144.55049286 366.322052 144.85935974 C363.57621887 145.50463498 363.57621887 145.50463498 361.5 146.625 C361.9439209 147.06368408 362.3878418 147.50236816 362.84521484 147.9543457 C364.85777029 149.94609614 366.8664162 151.94174474 368.875 153.9375 C369.57367188 154.62779297 370.27234375 155.31808594 370.9921875 156.02929688 C371.6625 156.69638672 372.3328125 157.36347656 373.0234375 158.05078125 C373.64138184 158.66348877 374.25932617 159.27619629 374.89599609 159.9074707 C378.12787704 163.36809208 378.77469957 165.82167036 379.05859375 170.4921875 C378.1902099 173.80783491 375.9961372 175.3447073 373.5 177.625 C372.66984375 178.44097656 371.8396875 179.25695312 370.984375 180.09765625 C336.03724152 213.19758411 286.71130136 232.60072269 238.6875 233.125 C237.09470215 233.15279541 237.09470215 233.15279541 235.46972656 233.18115234 C228.24283427 233.12094792 228.24283427 233.12094792 224.83203125 230.84375 C222.74806296 227.37250664 222.70253132 224.54790146 223.5 220.625 C225.33441469 217.97528989 226.51204464 216.89427697 229.62109375 216.046875 C232.59511423 215.61106196 235.52249476 215.47271659 238.52490234 215.38598633 C282.28637067 214.01758804 325.08414973 196.99320622 357.5 167.625 C356.83355469 167.00568604 356.16710937 166.38637207 355.48046875 165.74829102 C353.00189268 163.42375932 350.54542805 161.07976496 348.10058594 158.7199707 C347.04154431 157.70599811 345.97453997 156.70027128 344.89941406 155.70336914 C334.82672252 146.34548363 334.82672252 146.34548363 334.5 140.65234375 C334.67854053 137.68933818 335.33312017 136.79169332 337.4524231 134.67475891 C341.49720888 131.95429082 345.43518859 131.01420522 350.13623047 129.87597656 C351.10107361 129.63155319 352.06591675 129.38712982 353.05999756 129.13529968 C356.24267848 128.33263762 359.42964856 127.54875257 362.6171875 126.765625 C364.8355199 126.21172919 367.0536261 125.65692673 369.27151489 125.10125732 C373.91812593 123.9400626 378.56682476 122.78776868 383.21728516 121.64208984 C389.17154502 120.17477557 395.12094874 118.68880208 401.06899834 117.19653702 C405.64853081 116.04921289 410.23009291 114.91017993 414.81235123 113.77379608 C417.00648839 113.22893856 419.20008596 112.68190324 421.39312363 112.13263702 C424.46179093 111.36573487 427.53292296 110.60963519 430.60498047 109.85644531 C431.50703217 109.62896103 432.40908386 109.40147675 433.33847046 109.167099 C438.14070015 108.00285003 442.51998924 107.18897202 447.5 107.625 C450.4375 109.6875 450.4375 109.6875 452.5 112.625 C453.01926777 118.55571812 451.70556295 123.82179846 450.26855469 129.52001953 C450.03114059 130.48836731 449.7937265 131.45671509 449.54911804 132.45440674 C448.76521343 135.64104755 447.96916544 138.82449645 447.171875 142.0078125 C446.62060598 144.22776868 446.06968747 146.44781193 445.519104 148.66793823 C444.36457343 153.31439671 443.20363249 157.95919794 442.03857422 162.60302734 C440.54685038 168.55241493 439.07449246 174.5064048 437.60731125 180.46188545 C436.47531022 185.04520239 435.33140543 189.62548558 434.18405914 194.20498276 C433.63618463 196.3992001 433.09240679 198.59444459 432.5528183 200.79071426 C431.79720802 203.85997361 431.02525085 206.92466936 430.24902344 209.98876953 C430.02963608 210.89486969 429.81024872 211.80096985 429.58421326 212.73452759 C428.34460107 217.54804115 427.11402922 221.01099904 423.5 224.625 C420.32039191 226.00856878 417.76273945 225.68581054 414.5 224.625 C410.35386114 221.56702546 406.92145262 217.89641939 403.4375 214.125 C402.4689328 213.11123624 401.49824557 212.09949351 400.52539062 211.08984375 C398.16199712 208.62062665 395.82213922 206.13294847 393.5 203.625 C392.23786059 204.55626343 390.9778659 205.49043393 389.71875 206.42578125 C389.01685547 206.94567627 388.31496094 207.46557129 387.59179688 208.0012207 C385.63126715 209.5231025 383.81313259 211.11967525 382 212.8125 C359.96007653 232.31761746 331.33710206 245.89515665 303.5 254.625 C302.75717773 254.86057617 302.01435547 255.09615234 301.24902344 255.33886719 C282.82647854 261.08617648 263.26647801 264.68693658 243.9453125 264.86328125 C243.05429337 264.8730751 242.16327423 264.88286896 241.24525452 264.89295959 C221.33703132 265.06662714 202.04074776 264.89872546 182.5 260.625 C181.51386719 260.41069336 180.52773437 260.19638672 179.51171875 259.97558594 C130.65084224 248.97708589 82.79561454 222.52169619 50.5 183.625 C49.71753906 182.75359375 48.93507812 181.8821875 48.12890625 180.984375 C19.17808452 148.48384205 0.02063001 105.4987252 -6.5 62.625 C-6.67515137 61.50343506 -6.85030273 60.38187012 -7.03076172 59.22631836 C-8.49862837 48.86679383 -8.87248738 38.63239594 -8.87060547 28.17553711 C-8.87505659 25.40224118 -8.91175531 22.63044621 -8.94921875 19.85742188 C-8.9550752 18.07813035 -8.95905242 16.29883141 -8.9609375 14.51953125 C-8.97530853 13.6987056 -8.98967957 12.87787994 -9.00448608 12.03218079 C-8.97250303 8.03599999 -8.78507724 6.07964334 -6.60986328 2.6105957 C-4.21028763 0.35235122 -3.2495722 -0.05564336 0 0 Z " fill="#ffffff" transform="translate(24.5,231.375)"/>
<path d="M0 0 C0.96594086 0.00054382 1.93188171 0.00108765 2.92709351 0.00164795 C18.82427694 0.04267209 34.1070568 0.96742637 49.6875 4.375 C51.16669922 4.69645996 51.16669922 4.69645996 52.67578125 5.02441406 C101.53665776 16.02291411 149.39188546 42.47830381 181.6875 81.375 C182.46996094 82.24640625 183.25242187 83.1178125 184.05859375 84.015625 C213.00941548 116.51615795 232.16686999 159.5012748 238.6875 202.375 C238.86265137 203.49656494 239.03780273 204.61812988 239.21826172 205.77368164 C240.68612837 216.13320617 241.05998738 226.36760406 241.05810547 236.82446289 C241.06255659 239.59775882 241.09925531 242.36955379 241.13671875 245.14257812 C241.1425752 246.92186965 241.14655242 248.70116859 241.1484375 250.48046875 C241.16999405 251.71170723 241.16999405 251.71170723 241.19198608 252.96781921 C241.16000303 256.96400001 240.97257724 258.92035666 238.79736328 262.3894043 C236.39778763 264.64764878 235.4370722 265.05564336 232.1875 265 C231.4346875 265.01289063 230.681875 265.02578125 229.90625 265.0390625 C226.52795809 264.02795401 225.56115738 262.32702656 223.6875 259.375 C223.32167841 256.47304985 223.17528686 253.94535798 223.21875 251.05078125 C223.207755 249.37833502 223.19651478 247.7058904 223.18505859 246.03344727 C223.18624695 245.16084259 223.1874353 244.28823792 223.18865967 243.38919067 C223.16292483 183.43446636 201.6504965 128.24919033 160.10009766 84.85058594 C158.79158851 83.48372986 157.49487271 82.1056102 156.19921875 80.7265625 C149.57949183 73.85764782 142.29852965 68.08534045 134.6875 62.375 C134.12546875 61.94687012 133.5634375 61.51874023 132.984375 61.07763672 C123.42982998 53.82522361 113.32761609 47.89415702 102.6875 42.375 C101.93871582 41.98425293 101.18993164 41.59350586 100.41845703 41.19091797 C49.62302698 15.01891585 -11.23312954 10.53414131 -65.64794922 27.50683594 C-79.41738932 31.99319557 -92.57197312 37.49894311 -105.3125 44.375 C-107.045 45.29539062 -107.045 45.29539062 -108.8125 46.234375 C-122.76137812 53.90625797 -135.44998366 63.2460192 -147.359375 73.78125 C-157.12255487 82.35631804 -157.12255487 82.35631804 -162.98046875 82.390625 C-167.96381393 80.87166867 -170.67781142 77.54324454 -174.1875 73.8125 C-174.87585938 73.10158203 -175.56421875 72.39066406 -176.2734375 71.65820312 C-177.96499913 69.90790672 -179.64377058 68.14703172 -181.3125 66.375 C-185.59436259 81.33153745 -189.37799775 96.40193775 -193.125 111.5 C-193.72829369 113.92323235 -194.33180783 116.34640982 -194.93554688 118.76953125 C-196.39706826 124.63739192 -197.85588653 130.5059192 -199.3125 136.375 C-190.48025253 134.17850966 -181.64863806 131.97949709 -172.81782722 129.77723789 C-168.71756541 128.75478469 -164.61708873 127.73321046 -160.51611328 126.71362305 C-156.56043853 125.73012643 -152.60533851 124.74434968 -148.65063095 123.75697136 C-147.13972199 123.38016986 -145.62860577 123.00419847 -144.11728287 122.62906075 C-142.00488434 122.10457642 -139.89323377 121.57717848 -137.78173828 121.04907227 C-135.97638107 120.59939842 -135.97638107 120.59939842 -134.134552 120.14064026 C-131.38871887 119.49536502 -131.38871887 119.49536502 -129.3125 118.375 C-129.7564209 117.93631592 -130.2003418 117.49763184 -130.65771484 117.0456543 C-132.67027029 115.05390386 -134.6789162 113.05825526 -136.6875 111.0625 C-137.38617188 110.37220703 -138.08484375 109.68191406 -138.8046875 108.97070312 C-139.475 108.30361328 -140.1453125 107.63652344 -140.8359375 106.94921875 C-141.45388184 106.33651123 -142.07182617 105.72380371 -142.70849609 105.0925293 C-145.94037704 101.63190792 -146.58719957 99.17832964 -146.87109375 94.5078125 C-146.0027099 91.19216509 -143.8086372 89.6552927 -141.3125 87.375 C-140.06726563 86.15103516 -140.06726563 86.15103516 -138.796875 84.90234375 C-104.18938664 52.12410834 -55.17911387 32.47824459 -7.5625 32.0625 C-6.43972656 32.03349609 -5.31695312 32.00449219 -4.16015625 31.97460938 C-2.54173828 31.96204102 -2.54173828 31.96204102 -0.890625 31.94921875 C0.08487305 31.93463623 1.06037109 31.92005371 2.06542969 31.9050293 C5.41924293 32.50615504 6.58421534 33.75503889 8.6875 36.375 C9.41623288 39.11846497 9.2513384 41.60137072 8.6875 44.375 C6.79138247 47.11383643 5.62165284 48.14091533 2.39208984 48.95019531 C-0.38615297 49.38656853 -3.08977997 49.59745944 -5.8984375 49.734375 C-48.04581268 52.09956515 -93.67167657 65.67916612 -124.3125 96.375 C-124.54311038 98.59871743 -124.54311038 98.59871743 -122.38476562 100.38696289 C-121.50498047 101.1989917 -120.62519531 102.01102051 -119.71875 102.84765625 C-118.77128906 103.74806641 -117.82382813 104.64847656 -116.84765625 105.57617188 C-115.33671902 107.00708376 -113.82081757 108.42989882 -112.28466797 109.83374023 C-102.66791737 118.65766187 -102.66791737 118.65766187 -102.34375 124.30859375 C-102.50256721 127.29233719 -103.13143306 128.19390616 -105.26382446 130.32661438 C-109.30944302 133.04483965 -113.24812379 133.98590015 -117.94873047 135.12402344 C-118.91357361 135.36844681 -119.87841675 135.61287018 -120.87249756 135.86470032 C-124.05517848 136.66736238 -127.24214856 137.45124743 -130.4296875 138.234375 C-132.6480199 138.78827081 -134.8661261 139.34307327 -137.08401489 139.89874268 C-141.73062593 141.0599374 -146.37932476 142.21223132 -151.02978516 143.35791016 C-156.98404502 144.82522443 -162.93344874 146.31119792 -168.88149834 147.80346298 C-173.46103081 148.95078711 -178.04259291 150.08982007 -182.62485123 151.22620392 C-184.81898839 151.77106144 -187.01258596 152.31809676 -189.20562363 152.86736298 C-192.27429093 153.63426513 -195.34542296 154.39036481 -198.41748047 155.14355469 C-199.77055801 155.48478111 -199.77055801 155.48478111 -201.15097046 155.832901 C-205.95320015 156.99714997 -210.33248924 157.81102798 -215.3125 157.375 C-218.25 155.3125 -218.25 155.3125 -220.3125 152.375 C-220.83176777 146.44428188 -219.51806295 141.17820154 -218.08105469 135.47998047 C-217.84364059 134.51163269 -217.6062265 133.54328491 -217.36161804 132.54559326 C-216.57771343 129.35895245 -215.78166544 126.17550355 -214.984375 122.9921875 C-214.43310598 120.77223132 -213.88218747 118.55218807 -213.331604 116.33206177 C-212.17707343 111.68560329 -211.01613249 107.04080206 -209.85107422 102.39697266 C-208.35935038 96.44758507 -206.88699246 90.4935952 -205.41981125 84.53811455 C-204.28781022 79.95479761 -203.14390543 75.37451442 -201.99655914 70.79501724 C-201.44868463 68.6007999 -200.90490679 66.40555541 -200.3653183 64.20928574 C-199.60970802 61.14002639 -198.83775085 58.07533064 -198.06152344 55.01123047 C-197.84213608 54.10513031 -197.62274872 53.19903015 -197.39671326 52.26547241 C-196.15710107 47.45195885 -194.92652922 43.98900096 -191.3125 40.375 C-188.13289191 38.99143122 -185.57523945 39.31418946 -182.3125 40.375 C-178.16636114 43.43297454 -174.73395262 47.10358061 -171.25 50.875 C-170.2814328 51.88876376 -169.31074557 52.90050649 -168.33789062 53.91015625 C-165.97449712 56.37937335 -163.63463922 58.86705153 -161.3125 61.375 C-160.05036059 60.44373657 -158.7903659 59.50956607 -157.53125 58.57421875 C-156.82935547 58.05432373 -156.12746094 57.53442871 -155.40429688 56.9987793 C-153.44376715 55.4768975 -151.62563259 53.88032475 -149.8125 52.1875 C-119.27527308 25.16235181 -77.17359291 8.62810163 -37.3125 2.375 C-36.15693604 2.19243652 -35.00137207 2.00987305 -33.81079102 1.82177734 C-22.54078263 0.22144613 -11.3717251 -0.02416633 0 0 Z " fill="#ffffff" transform="translate(255.3125,15.625)"/>
<path d="M0 0 C4.50895436 4.52022674 6.3697541 9.34318247 6.41992188 15.68310547 C6.43583374 16.89811737 6.45174561 18.11312927 6.46813965 19.36495972 C6.46834106 20.66506989 6.46854248 21.96518005 6.46875 23.3046875 C6.47586089 24.66700551 6.48356123 26.02932055 6.49182129 27.39163208 C6.50523355 30.24115328 6.50684999 33.09039758 6.50097656 35.93994141 C6.49508667 39.57380462 6.52565488 43.20632886 6.56609344 46.8399334 C6.592071 49.65230339 6.59483885 52.46435536 6.59120178 55.27682877 C6.59369637 57.2620097 6.61832194 59.24712354 6.64343262 61.23214722 C6.58646866 68.70854382 5.88176924 73.65944252 1 79.4375 C0.51865601 80.04850555 0.03731201 80.65951111 -0.45861816 81.28903198 C-14.46650717 98.34484617 -45.14478491 102.02393054 -65.57623291 104.22955322 C-69.62642053 104.57703853 -73.66728121 104.61951772 -77.73046875 104.640625 C-78.63534027 104.64763931 -79.54021179 104.65465363 -80.47250366 104.66188049 C-83.37755353 104.67929678 -86.28239984 104.68573267 -89.1875 104.6875 C-90.17765106 104.68817474 -91.16780212 104.68884949 -92.18795776 104.68954468 C-106.31009273 104.6742196 -120.14905691 104.47824034 -134 101.4375 C-134.81033691 101.26589355 -135.62067383 101.09428711 -136.45556641 100.91748047 C-154.6538728 96.9424844 -172.45341387 90.85375283 -184 75.4375 C-186.08006551 72.05006379 -186.26709972 69.36498805 -186.30639648 65.41894531 C-186.32238388 64.20378235 -186.33837128 62.98861938 -186.35484314 61.7366333 C-186.36020584 60.42620056 -186.36556854 59.11576782 -186.37109375 57.765625 C-186.38006764 56.40045069 -186.38918962 55.03527735 -186.39845276 53.67010498 C-186.4149288 50.80869157 -186.42263988 47.94739494 -186.42553711 45.0859375 C-186.43090917 41.4363798 -186.46854386 37.78793518 -186.51428127 34.13869095 C-186.54417302 31.31777036 -186.55126331 28.4971134 -186.55226326 25.67604828 C-186.55846515 23.68197317 -186.58787885 21.68801335 -186.61778259 19.69415283 C-186.57294534 10.63650845 -184.84026619 5.90381356 -179.03515625 -0.84765625 C-140.58237821 -35.49322854 -37.77666262 -35.6561431 0 0 Z M-167.65234375 11.8984375 C-170.11634057 14.71239329 -170.13183279 17.53915077 -170.16113281 21.10498047 C-170.17074036 22.04961151 -170.1803479 22.99424255 -170.19024658 23.96749878 C-170.19449646 24.98627106 -170.19874634 26.00504333 -170.203125 27.0546875 C-170.20882507 28.10399445 -170.21452515 29.15330139 -170.22039795 30.23440552 C-170.22984686 32.45525097 -170.2363815 34.67611044 -170.24023438 36.89697266 C-170.24994208 40.29224112 -170.28096784 43.68690482 -170.3125 47.08203125 C-170.31902995 49.23957974 -170.32428045 51.39713256 -170.328125 53.5546875 C-170.3404718 54.56941132 -170.3528186 55.58413513 -170.36553955 56.62960815 C-170.36516202 63.52862387 -170.36516202 63.52862387 -167 69.4375 C-144.95639133 88.90701424 -104.51179644 89.65521131 -76.75439453 88.11499023 C-56.17336829 86.64491693 -25.70844246 84.08978948 -11 67.4375 C-9.9605225 64.3190675 -9.88505162 62.16274414 -9.90234375 58.89453125 C-9.90556641 57.82138672 -9.90878906 56.74824219 -9.91210938 55.64257812 C-9.92048828 54.52302734 -9.92886719 53.40347656 -9.9375 52.25 C-9.94426758 50.55327148 -9.94426758 50.55327148 -9.95117188 48.82226562 C-9.96296502 46.02729073 -9.9794235 43.2324218 -10 40.4375 C-11.18851563 40.95699219 -12.37703125 41.47648437 -13.6015625 42.01171875 C-22.66542804 45.86635981 -31.62947784 49.14213065 -41.25 51.3125 C-42.08611816 51.50287842 -42.92223633 51.69325684 -43.78369141 51.8894043 C-58.12904535 54.93548646 -72.23311913 55.78721589 -86.85229492 55.75317383 C-89.66690213 55.75002306 -92.48044415 55.77354324 -95.29492188 55.79882812 C-138.58582131 55.94936659 -138.58582131 55.94936659 -150.90625 47.0625 C-152.25788633 45.05435459 -152.40236904 43.84597588 -152.375 41.4375 C-152.38273437 40.756875 -152.39046875 40.07625 -152.3984375 39.375 C-151.87780271 36.84328574 -150.99798957 36.04860946 -149 34.4375 C-143.03754104 33.34121299 -136.97603257 34.94027336 -131.1875 36.3125 C-95.08354457 44.10449726 -50.10782181 43.44094273 -17.1640625 24.9296875 C-13.71423533 22.5509258 -11.30472657 20.71181111 -10.3125 16.5625 C-11.3539091 11.82882227 -14.06962483 10.05301186 -18 7.4375 C-54.01163252 -14.76416702 -134.70224285 -17.23474864 -167.65234375 11.8984375 Z " fill="#ffffff" transform="translate(346,167.5625)"/>
<path d="M0 0 C0.66 -0.0103125 1.32 -0.020625 2 -0.03125 C4.96526136 0.75639755 6.15332267 2.07951921 8 4.5 C8.50390625 7.33984375 8.50390625 7.33984375 8.5625 10.4375 C8.66158904 15.04805453 9.19716719 17.77551496 12 21.5 C35.41577151 40.90981468 77.71152138 41.26640688 106.28662109 38.77734375 C138.78019996 35.74736357 138.78019996 35.74736357 166 19.5 C167.33657778 15.49026665 167.27461388 11.61677919 167.42578125 7.41015625 C168.12640411 3.85938052 169.1263795 2.65140084 172 0.5 C174 -0.03125 174 -0.03125 176 0 C176.66 -0.0103125 177.32 -0.020625 178 -0.03125 C181.10135568 0.7925476 182.15093632 1.86194854 184 4.5 C184.61700716 7.59342526 184.60369944 10.60430175 184.5625 13.75 C184.58634766 14.57113281 184.61019531 15.39226562 184.63476562 16.23828125 C184.6157812 24.22439556 181.14112057 29.03064154 176.1875 35 C157.79939535 52.47069379 124.51415293 56.57718004 100.26953125 56.703125 C99.36465973 56.71013931 98.45978821 56.71715363 97.52749634 56.72438049 C94.62244647 56.74179678 91.71760016 56.74823267 88.8125 56.75 C87.82234894 56.75067474 86.83219788 56.75134949 85.81204224 56.75204468 C71.68990727 56.7367196 57.85094309 56.54074034 44 53.5 C43.18966309 53.32839355 42.37932617 53.15678711 41.54443359 52.97998047 C23.3461272 49.0049844 5.54658613 42.91625283 -6 27.5 C-8.57831877 23.05092848 -8.36741498 19.02886533 -8.375 14 C-8.39949219 13.14535156 -8.42398438 12.29070312 -8.44921875 11.41015625 C-8.47832487 5.19114784 -8.47832487 5.19114784 -6.2265625 1.9375 C-3.89424496 0.43172306 -2.74512327 -0.04289255 0 0 Z " fill="#ffffff" transform="translate(168,311.5)"/>
<path d="M0 0 C0.66 -0.0103125 1.32 -0.020625 2 -0.03125 C4.96526136 0.75639755 6.15332267 2.07951921 8 4.5 C8.50390625 7.33984375 8.50390625 7.33984375 8.5625 10.4375 C8.66158904 15.04805453 9.19716719 17.77551496 12 21.5 C35.41577151 40.90981468 77.71152138 41.26640688 106.28662109 38.77734375 C138.78019996 35.74736357 138.78019996 35.74736357 166 19.5 C167.33657778 15.49026665 167.27461388 11.61677919 167.42578125 7.41015625 C168.12640411 3.85938052 169.1263795 2.65140084 172 0.5 C174 -0.03125 174 -0.03125 176 0 C176.66 -0.0103125 177.32 -0.020625 178 -0.03125 C181.10135568 0.7925476 182.15093632 1.86194854 184 4.5 C184.61700716 7.59342526 184.60369944 10.60430175 184.5625 13.75 C184.58634766 14.57113281 184.61019531 15.39226562 184.63476562 16.23828125 C184.6157812 24.22439556 181.14112057 29.03064154 176.1875 35 C157.79939535 52.47069379 124.51415293 56.57718004 100.26953125 56.703125 C99.36465973 56.71013931 98.45978821 56.71715363 97.52749634 56.72438049 C94.62244647 56.74179678 91.71760016 56.74823267 88.8125 56.75 C87.82234894 56.75067474 86.83219788 56.75134949 85.81204224 56.75204468 C71.68990727 56.7367196 57.85094309 56.54074034 44 53.5 C43.18966309 53.32839355 42.37932617 53.15678711 41.54443359 52.97998047 C23.3461272 49.0049844 5.54658613 42.91625283 -6 27.5 C-8.57831877 23.05092848 -8.36741498 19.02886533 -8.375 14 C-8.39949219 13.14535156 -8.42398438 12.29070312 -8.44921875 11.41015625 C-8.47832487 5.19114784 -8.47832487 5.19114784 -6.2265625 1.9375 C-3.89424496 0.43172306 -2.74512327 -0.04289255 0 0 Z " fill="#ffffff" transform="translate(168,263.5)"/>
<path d="M0 0 C2.5 1.5 2.5 1.5 4 4 C4.791013 8.02098277 4.62153384 10.96411027 2.5 14.5 C-1.03588973 16.62153384 -3.97901723 16.791013 -8 16 C-10.5 14.5 -10.5 14.5 -12 12 C-12.791013 7.97901723 -12.62153384 5.03588973 -10.5 1.5 C-6.96411027 -0.62153384 -4.02098277 -0.791013 0 0 Z " fill="#ffffff" transform="translate(228,448)"/>
<path d="M0 0 C2.5 1.5 2.5 1.5 4 4 C4.791013 8.02098277 4.62153384 10.96411027 2.5 14.5 C-1.03588973 16.62153384 -3.97901723 16.791013 -8 16 C-10.5 14.5 -10.5 14.5 -12 12 C-12.791013 7.97901723 -12.62153384 5.03588973 -10.5 1.5 C-6.96411027 -0.62153384 -4.02098277 -0.791013 0 0 Z " fill="#ffffff" transform="translate(292,48)"/>
</svg>
